<?xml version="1.0" encoding="utf-8"?>
<!-- Generator: Adobe Illustrator 27.1.1, SVG Export Plug-In . SVG Version: 6.00 Build 0)  -->
<svg version="1.1" id="Calque_1" xmlns="http://www.w3.org/2000/svg" xmlns:xlink="http://www.w3.org/1999/xlink" x="0px" y="0px"
	 viewBox="0 0 48 48" style="enable-background:new 0 0 48 48;" xml:space="preserve">
<style type="text/css">
	.st0{fill:#d3bfff;}
</style>
<path class="st0" d="M24,44c-2.7,0-5.3-0.5-7.8-1.6c-2.4-1-4.6-2.5-6.4-4.3s-3.2-3.9-4.3-6.4S4,26.7,4,24c0-2.8,0.5-5.4,1.6-7.9
	s2.5-4.5,4.4-6.3s4-3.2,6.5-4.2s5.1-1.6,8-1.6c2.6,0,5.1,0.4,7.5,1.3s4.4,2.1,6.2,3.7c1.8,1.6,3.2,3.4,4.2,5.6
	c1.1,2.2,1.6,4.5,1.6,7.1c0,3.6-1,6.4-3.1,8.5c-2.1,2.1-4.9,3.1-8.4,3.1h-3.8c-0.6,0-1.1,0.2-1.5,0.7s-0.6,1-0.6,1.5
	c0,0.7,0.2,1.3,0.7,1.9c0.5,0.6,0.7,1.3,0.7,2.2c0,0.9-0.4,1.8-1.2,2.8S25,44,24,44z M12.4,25.3c0.7,0,1.2-0.2,1.8-0.8
	s0.8-1.1,0.8-1.8c0-0.7-0.2-1.2-0.8-1.8c-0.5-0.5-1.1-0.8-1.8-0.8s-1.2,0.2-1.8,0.8c-0.5,0.5-0.8,1.1-0.8,1.8c0,0.7,0.2,1.2,0.8,1.8
	S11.7,25.3,12.4,25.3z M18.6,16.8c0.7,0,1.2-0.2,1.8-0.8c0.5-0.5,0.8-1.1,0.8-1.7s-0.2-1.2-0.8-1.8s-1.1-0.8-1.8-0.8
	c-0.7,0-1.2,0.2-1.8,0.8s-0.8,1.1-0.8,1.8s0.2,1.2,0.8,1.7C17.4,16.5,18,16.8,18.6,16.8z M29.4,16.8c0.7,0,1.2-0.2,1.8-0.8
	c0.5-0.5,0.8-1.1,0.8-1.7s-0.2-1.2-0.8-1.8s-1.1-0.8-1.8-0.8s-1.2,0.2-1.8,0.8s-0.8,1.1-0.8,1.8s0.2,1.2,0.8,1.7
	C28.1,16.5,28.7,16.8,29.4,16.8z M35.9,25.3c0.7,0,1.2-0.2,1.8-0.8s0.8-1.1,0.8-1.8c0-0.7-0.2-1.2-0.8-1.8c-0.5-0.5-1.1-0.8-1.8-0.8
	c-0.7,0-1.2,0.2-1.8,0.8c-0.5,0.5-0.8,1.1-0.8,1.8c0,0.7,0.2,1.2,0.8,1.8S35.2,25.3,35.9,25.3z"/>
</svg>
