<?xml version="1.0" encoding="utf-8"?>
<svg height="48" viewBox="0 96 1224 1224" width="48px" xmlns="http://www.w3.org/2000/svg">
  <path d="M 312 1068 C 296 1068 282 1062 270 1050 C 258 1038 252 1024 252 1008 L 252 738 L 312 738 L 312 1008 L 582 1008 L 582 1068 L 312 1068 Z M 642 1068 L 642 1008 L 912 1008 L 912 738 L 972 738 L 972 1008 C 972 1024 966 1038 954 1050 C 942 1062 928 1068 912 1068 L 642 1068 Z M 369 920 L 487 768 L 580 895 L 712 724 L 859 920 L 369 920 Z M 252 678 L 252 408 C 252 392 258 378 270 366 C 282 354 296 348 312 348 L 582 348 L 582 408 L 312 408 L 312 678 L 252 678 Z M 912 678 L 912 408 L 642 408 L 642 348 L 912 348 C 928 348 942 354 954 366 C 966 378 972 392 972 408 L 972 678 L 912 678 Z M 756 618 C 740.4 618 727.5 612.9 717.3 602.7 C 707.1 592.5 702 579.6 702 564 C 702 548.4 707.1 535.5 717.3 525.3 C 727.5 515.1 740.4 510 756 510 C 771.6 510 784.5 515.1 794.7 525.3 C 804.9 535.5 810 548.4 810 564 C 810 579.6 804.9 592.5 794.7 602.7 C 784.5 612.9 771.6 618 756 618 Z" style="fill: rgb(255, 255, 255);"/>
</svg>