<?xml version="1.0" encoding="UTF-8"?>
<svg id="Calque_2" data-name="Calque 2" xmlns="http://www.w3.org/2000/svg" viewBox="0 0 1024 1024">
  <defs>
    <style>
      .cls-1 {
        fill: #d3bfff;
      }

      .cls-2 {
        fill: #4d4168;
      }

      .cls-3 {
        fill: none;
      }
    </style>
  </defs>
  <g id="icon">
    <rect class="cls-3" width="1024" height="1024"/>
    <g>
      <path class="cls-1" d="m178.66,281.54c-1.31,0-2.62-.2-3.9-.62l-112.9-37.1c-4.24-1.39-7.42-4.95-8.33-9.32l-24.32-116.33c-.91-4.37.57-8.9,3.9-11.88L121.68,27.07c2.33-2.08,5.3-3.18,8.33-3.18,1.31,0,2.62.21,3.9.62l112.9,37.1c4.24,1.39,7.42,4.95,8.33,9.32l24.33,116.33c.91,4.37-.57,8.9-3.9,11.88l-88.58,79.23c-2.33,2.08-5.3,3.18-8.33,3.18Z"/>
      <path class="cls-2" d="m130.01,36.39l112.9,37.1,24.32,116.33-88.58,79.23-112.9-37.1-24.32-116.33,88.58-79.23m0-25c-6.06,0-12.02,2.21-16.67,6.37L24.77,96.98c-6.66,5.95-9.63,15.01-7.8,23.75l24.32,116.33c1.83,8.74,8.18,15.85,16.67,18.63l112.9,37.1c2.56.84,5.19,1.25,7.8,1.25,6.06,0,12.02-2.21,16.67-6.37l88.58-79.23c6.66-5.95,9.63-15.01,7.8-23.75l-24.32-116.33c-1.83-8.74-8.18-15.85-16.67-18.63L137.82,12.64c-2.56-.84-5.19-1.25-7.8-1.25h0Z"/>
    </g>
    <g>
      <path class="cls-1" d="m869.99,1007.37c-2.73,0-5.43-.89-7.65-2.62l-93.97-72.75c-3.53-2.73-5.34-7.14-4.73-11.57l16.02-117.76c.6-4.42,3.52-8.19,7.65-9.88l109.99-45.01c1.53-.62,3.13-.93,4.73-.93,2.73,0,5.43.89,7.65,2.62l93.97,72.75c3.53,2.73,5.34,7.14,4.73,11.57l-16.02,117.76c-.6,4.42-3.52,8.19-7.65,9.88l-109.99,45.01c-1.53.62-3.13.93-4.73.93Z"/>
      <path class="cls-2" d="m902.02,759.35l93.97,72.75-16.02,117.76-109.99,45.01-93.97-72.75,16.02-117.76,109.99-45.01m0-25c-3.2,0-6.41.61-9.47,1.86l-109.99,45.01c-8.27,3.38-14.1,10.92-15.3,19.77l-16.02,117.76c-1.2,8.85,2.41,17.67,9.47,23.14l93.97,72.75c4.45,3.45,9.85,5.23,15.31,5.23,3.2,0,6.41-.61,9.47-1.86l109.99-45.01c8.27-3.38,14.1-10.92,15.3-19.77l16.02-117.76c1.2-8.85-2.41-17.67-9.47-23.14l-93.97-72.75c-4.45-3.45-9.85-5.23-15.31-5.23h0Z"/>
    </g>
    <g>
      <path class="cls-1" d="m306.1,977.14c-6.9,0-12.5-5.6-12.5-12.5v-344.76H69.87c-4.81,0-9.2-2.76-11.28-7.11s-1.47-9.49,1.55-13.24L502.27,51.51c2.37-2.94,5.95-4.65,9.73-4.65s7.36,1.71,9.73,4.65l442.12,548.01c3.02,3.75,3.62,8.9,1.55,13.24s-6.46,7.11-11.28,7.11h-223.73v344.76c0,6.9-5.6,12.5-12.5,12.5h-411.79Z"/>
      <path class="cls-2" d="m511.99,59.36l442.12,548.01h-236.23v357.26h-411.79v-357.26H69.87L511.99,59.36m0-25c-7.56,0-14.71,3.42-19.46,9.3L50.41,591.68c-6.05,7.49-7.25,17.79-3.1,26.48,4.15,8.69,12.93,14.22,22.55,14.22h211.23v332.26c0,13.81,11.19,25,25,25h411.79c13.81,0,25-11.19,25-25v-332.26h211.23c9.63,0,18.4-5.53,22.55-14.22,4.15-8.69,2.95-18.99-3.1-26.48L531.45,43.67c-4.75-5.88-11.9-9.3-19.46-9.3h0Z"/>
    </g>
    <path class="cls-2" d="m641.49,351l-1.75,14.75c-.84,6-4.17,10-10,12l-31.75,5.5c3.16,8.67,4.75,18.25,4.75,28.75,0,8.34-.96,15.84-2.88,22.5-1.92,6.67-4.29,12.84-7.12,18.5-2.84,5.67-5.92,11-9.25,16-3.34,5-6.42,9.96-9.25,14.88-2.84,4.92-5.21,10-7.12,15.25-1.92,5.25-2.88,10.96-2.88,17.12,0,4.5.79,8.79,2.38,12.88,1.58,4.09,3.58,8.09,6,12,2.41,3.92,5.08,7.88,8,11.88,2.91,4,5.58,8.25,8,12.75,2.41,4.5,4.41,9.38,6,14.62,1.58,5.25,2.38,11.04,2.38,17.38-.17,11.83-3,23.04-8.5,33.62-5.5,10.58-13.34,19.96-23.5,28.12-10.17,8.16-22.5,14.62-37,19.38s-30.84,7.12-49,7.12c-14.5,0-27.71-1.5-39.62-4.5-11.92-3-22.09-7.25-30.5-12.75-8.42-5.5-14.91-12.12-19.5-19.88-4.58-7.75-6.88-16.29-6.88-25.62,0-10.67,2.25-20.09,6.75-28.25s10.58-15.21,18.25-21.12c7.66-5.91,16.58-10.79,26.75-14.62,10.16-3.83,20.96-6.66,32.38-8.5,11.41-1.83,23.12-2.71,35.12-2.62,12,.09,23.75.96,35.25,2.62-1.5-3.16-2.71-6.46-3.62-9.88-.92-3.41-1.38-7.12-1.38-11.12,0-5.16.79-10.5,2.38-16,1.58-5.5,4.21-11.75,7.88-18.75-6.34,4.34-13.42,7.71-21.25,10.12-7.84,2.42-16.75,3.62-26.75,3.62s-18.71-1.58-27.12-4.75c-8.42-3.16-15.79-7.83-22.12-14-6.34-6.16-11.34-13.88-15-23.12-3.67-9.25-5.5-20.04-5.5-32.38s2.21-23.79,6.62-35.38c4.41-11.58,10.88-21.91,19.38-31,8.5-9.08,19-16.38,31.5-21.88s26.91-8.25,43.25-8.25c9,0,17.58,1.09,25.75,3.25,8.16,2.17,15.5,5.42,22,9.75h68.5Zm-85,250.25c0-4.5-.42-8.62-1.25-12.38-.84-3.75-1.92-7.29-3.25-10.62-22-3.5-41-4.79-57-3.88-16,.92-29.21,3.38-39.62,7.38-10.42,4-18.12,9.17-23.12,15.5s-7.5,13.16-7.5,20.5c0,12,5.04,21.16,15.12,27.5,10.08,6.33,24.38,9.5,42.88,9.5,11,0,21.04-1.46,30.12-4.38,9.08-2.92,16.83-6.79,23.25-11.62,6.41-4.84,11.41-10.5,15-17,3.58-6.5,5.38-13.34,5.38-20.5Zm-50.25-120.5c9,0,16.96-1.96,23.87-5.88,6.91-3.91,12.75-9.08,17.5-15.5,4.75-6.41,8.38-13.62,10.88-21.62s3.75-16.08,3.75-24.25c0-14.66-3.71-25.75-11.12-33.25-7.42-7.5-17.62-11.25-30.62-11.25-9,0-16.92,1.84-23.75,5.5-6.84,3.67-12.62,8.59-17.38,14.75-4.75,6.17-8.34,13.17-10.75,21-2.42,7.84-3.62,16-3.62,24.5,0,15,3.62,26.42,10.88,34.25,7.25,7.84,17.38,11.75,30.38,11.75Z"/>
  </g>
</svg>