<?xml version="1.0" encoding="utf-8"?>
<svg version="1.1" id="Camada_1" x="0" y="0" viewBox="0 0 1000 938.9" style="enable-background:new 0 0 1000 938.9" xmlns="http://www.w3.org/2000/svg">
  <style>.st1{fill:#04aa6d}</style>
  <defs>
    <path id="SVGID_1_" d="M0 0h1000v938.9H0z"/>
    <linearGradient gradientUnits="userSpaceOnUse" x1="344.7" y1="0" x2="344.7" y2="647.1" id="gradient-0">
      <stop offset="0" style="stop-color: rgba(5, 201, 129, 1)"/>
      <stop offset="1" style="stop-color: rgba(3, 101, 65, 1)"/>
    </linearGradient>
  </defs>
  <clipPath id="SVGID_2_">
    <path d="M0 0h1000v938.9H0z" transform="matrix(1, 0, 0, 1, 0, 0)" style="overflow: visible;"/>
  </clipPath>
  <g transform="translate(-.054) scale(1.45123)" style="clip-path:url(#SVGID_2_)">
    <path class="st1" d="M580.4 136.2s17.3 18.6 41.5 18.6c19.1 0 33-11.6 33-27.4C655 108 637.3 99 615.8 99h-12.7l-7.5-17 33.6-39.7c7.2-8.5 13.2-13.9 13.2-13.9s-5.4.3-16.2.3h-54.6V0h111.8v20.9l-44.8 51.9c25.3 3.6 50.1 21.6 50.1 53.4 0 31.2-23.7 60.1-64.5 60.1-38.9 0-60.5-24.5-60.5-24.5l16.7-25.6zM362.3 174.8l147.7 263 72.9-130L443.5 59.6H281.2l-67.3 119.8-67.2-119.8H.7l212.4 378.2.8-1.4.8 1.4 147.6-263zM2.2 616h21.6c0 6.3 5.5 12.4 15.3 12.4 9.1 0 15.1-4.5 15.1-10.6 0-5.2-4-7.6-10.9-9.1L31 605.6C10.1 600.1 4.7 589 4.7 577.1c0-14.4 14.3-27.6 34.5-27.6 16.5 0 35.2 8.4 34.9 29H52.3c0-6.3-5.8-10.3-12.4-10.3-7.2 0-12.1 4.1-12.1 9.9 0 4.8 4.5 7.6 9.9 8.8l14.9 4c20.9 5.4 24.6 18.4 24.6 27 0 18.8-18.8 29.2-37.7 29.2C21.2 647 2.6 635.8 2.2 616zM96.3 598.2c0-29.4 23.7-48.7 50.5-48.7 16.1 0 29.2 7.2 37.7 17.9l-16.2 12.9c-4.8-5.8-12.7-9.4-21-9.4-16.1 0-27.6 11.6-27.6 27.2 0 15.5 11.6 27.4 27.6 27.4 8.4 0 16.2-3.6 21-9.4l16.2 12.9c-8.5 10.7-21.6 17.9-37.7 17.9-26.8.1-50.5-19.3-50.5-48.7zM295.6 592.5v52h-23.1v-50.3c0-14.9-8.9-22.8-19.3-22.8-10.6 0-23.7 6.2-23.7 24.2v49.1h-23.1V501.3h23.2v64.5c4.5-11.3 19.5-16.5 28.7-16.5 24.1.2 37.3 16.3 37.3 43.2zM319.8 598.2c0-29.4 22.8-48.7 49.2-48.7 26.4 0 49.5 19.3 49.5 48.7 0 29.4-23.1 48.8-49.5 48.8s-49.2-19.4-49.2-48.8zm75.5 0c0-16-12-27.2-26.3-27.2s-26 11.3-26 27.2c0 16.2 11.7 27.4 26 27.4 14.4-.1 26.3-11.2 26.3-27.4zM438.2 598.2c0-29.4 22.8-48.7 49.2-48.7 26.4 0 49.5 19.3 49.5 48.7 0 29.4-23.1 48.8-49.5 48.8-26.2 0-49.2-19.4-49.2-48.8zm75.5 0c0-16-12-27.2-26.3-27.2s-26 11.3-26 27.2c0 16.2 11.7 27.4 26 27.4 14.5-.1 26.3-11.2 26.3-27.4zM562.6 644.6V501.3h23.1v143.3h-23.1zM610.8 616h21.6c0 6.3 5.5 12.4 15.3 12.4 9.1 0 15.1-4.5 15.1-10.6 0-5.2-4-7.6-10.9-9.1l-12.4-3.2c-20.9-5.5-26.3-16.6-26.3-28.5 0-14.4 14.3-27.6 34.5-27.6 16.5 0 35.2 8.4 34.9 29h-22c0-6.3-5.8-10.3-12.4-10.3-7.2 0-12.1 4.1-12.1 9.9 0 4.8 4.5 7.6 9.9 8.8l14.9 4c20.9 5.4 24.6 18.4 24.6 27 0 18.8-18.8 29.2-37.7 29.2-18.1 0-36.5-11.2-37-31z" style="fill: url(#gradient-0);"/>
  </g>
</svg>