<?xml version="1.0" encoding="utf-8"?>
<!-- Generator: Adobe Illustrator 27.1.1, SVG Export Plug-In . SVG Version: 6.00 Build 0)  -->
<svg version="1.1" id="Calque_1" xmlns="http://www.w3.org/2000/svg" xmlns:xlink="http://www.w3.org/1999/xlink" x="0px" y="0px"
	 viewBox="0 0 50 50" style="enable-background:new 0 0 50 50;" xml:space="preserve">
<style type="text/css">
	.st0{fill:#FFFFFF;}
	.st1{fill:#00A7E0;}
</style>
<rect x="9.2" y="10.5" class="st0" width="31.5" height="28.9"/>
<path class="st1" d="M13,4c-5,0-9,4-9,9v24c0,5,4,9,9,9h24c5,0,9-4,9-9V13c0-5-4-9-9-9H13z M22.9,11.8c0.1,0,0.2,0,0.3,0
	c0.4,0.1,0.6,0.4,0.5,0.9c0,0.4-0.3,0.6-0.7,0.7c-0.2,0-0.3,0-0.5,0C22.3,13.3,22,13,22,12.5C22.1,12.1,22.4,11.8,22.9,11.8z
	 M14.8,14.1c0.2,0,0.4,0,0.6,0.1c0.7,0.2,1.1,0.6,1.4,1.2c0.1,0.3,0.2,0.7,0.3,1c0,0.6,0,1.1-0.2,1.7c-0.1,0.4-0.4,0.8-0.7,1.1
	c-0.5,0.4-1,0.6-1.6,0.5c-0.4,0-0.9-0.2-1.2-0.5c0,0,0,0.1,0,0.1v2c0,0.4,0,0.4-0.4,0.4c-0.2,0-0.5,0-0.7,0c-0.2,0-0.3,0-0.4-0.2
	c0-2.4,0-4.8,0-7.2c0.1-0.1,0.3-0.1,0.4-0.1c0.2,0,0.4,0,0.6,0c0.2,0,0.3,0.1,0.3,0.2c0,0.1,0,0.1,0.1,0.2c0,0,0,0,0,0
	c0.1,0,0.1-0.1,0.1-0.1C13.8,14.3,14.3,14.1,14.8,14.1z M28.3,14.1c0.2,0,0.3,0,0.5,0.1c0.3,0.1,0.6,0.3,0.8,0.5c0,0,0,0,0,0
	c0,0,0,0,0,0c0.2-0.1,0.3-0.2,0.5-0.3c0.5-0.2,1-0.4,1.6-0.3c0.4,0,0.7,0.1,1,0.4c0.3,0.3,0.4,0.6,0.4,1c0,0.1,0,0.1,0,0.2v3.6
	c0,0.3,0,0.3-0.3,0.3h-0.8c-0.1,0-0.1,0-0.2,0c-0.1,0-0.2-0.1-0.2-0.2c0-0.1,0-0.2,0-0.2V16c0-0.1,0-0.3,0-0.4
	c-0.1-0.2-0.2-0.4-0.5-0.4c-0.4,0-0.8,0.1-1.2,0.2c-0.1,0-0.1,0.1-0.1,0.1v3.6c0,0.1,0,0.1,0,0.2c0,0.1-0.1,0.2-0.2,0.2
	c-0.1,0-0.2,0-0.3,0h-0.7c-0.3,0-0.3-0.1-0.3-0.3V16c0-0.1,0-0.2,0-0.4c0-0.2-0.2-0.4-0.5-0.4c-0.4,0-0.8,0.1-1.2,0.2
	c-0.1,0-0.1,0.1-0.1,0.1v3.7c0,0.3-0.1,0.3-0.3,0.3h-0.9c-0.2,0-0.3-0.1-0.3-0.3v-4.8h0c0-0.1,0-0.1,0-0.2c0-0.1,0.1-0.1,0.2-0.1H26
	c0.1,0,0.2,0.1,0.2,0.2c0,0.1,0.1,0.2,0.1,0.3c0.1,0,0.1,0,0.2-0.1c0.4-0.2,0.8-0.4,1.2-0.5C27.9,14.1,28.1,14.1,28.3,14.1z
	 M37,14.1c0.2,0,0.5,0.1,0.7,0.1c0.9,0.3,1.3,1.2,1,2.1c-0.1,0.3-0.3,0.6-0.6,0.8c-0.3,0.1-0.6,0.2-0.9,0.3c-0.5,0.1-1,0.1-1.6,0
	c-0.1,0-0.1,0-0.2,0c0,0.6,0.3,1.1,0.9,1.2c0.4,0.1,0.9,0.1,1.3,0c0.2,0,0.4-0.1,0.6-0.1s0.3,0,0.3,0.2c0,0.2,0,0.3,0,0.5
	c0,0.2-0.1,0.3-0.2,0.3c-0.3,0.1-0.5,0.2-0.8,0.2c-0.5,0.1-1,0.1-1.6,0c-0.9-0.2-1.5-0.7-1.8-1.6c-0.2-0.7-0.2-1.4,0-2.1
	c0.3-1,1-1.6,2.1-1.8C36.5,14.1,36.8,14.1,37,14.1z M21.2,14.2c0.2,0,0.2,0.1,0.3,0.2c0,0.2,0,0.5,0,0.7c0,0.1,0,0.2,0,0.3
	c0,0.1-0.1,0.2-0.2,0.2c-0.1,0-0.2,0-0.3,0c-0.5,0-0.9,0-1.3,0.2c-0.1,0-0.1,0.1-0.1,0.2v3.3c0,0.1,0,0.1,0,0.2
	c0,0.1-0.1,0.2-0.2,0.2c0,0-0.1,0-0.2,0h-0.9c0,0-0.1,0-0.2,0c-0.1,0-0.2-0.1-0.2-0.2c0-0.1,0-0.1,0-0.2v-4.7c0-0.3,0-0.3,0.3-0.3
	H19c0.2,0,0.3,0.1,0.3,0.2s0.1,0.3,0.1,0.5c0,0,0.1,0,0.1-0.1c0.1-0.1,0.3-0.2,0.4-0.4C20.3,14.3,20.8,14.2,21.2,14.2z M22.4,14.2
	c0.4,0,0.7,0,1.1,0c0.2,0,0.2,0,0.2,0.2c0,0.1,0,0.1,0,0.2v4.6c0,0.1,0,0.2,0,0.2c0,0.1-0.1,0.2-0.2,0.2c0,0-0.1,0-0.1,0h-1
	c0,0-0.1,0-0.1,0c-0.1,0-0.2-0.1-0.2-0.2c0-0.1,0-0.1,0-0.2c0-0.8,0-1.5,0-2.3v-2.4C22.2,14.3,22.2,14.2,22.4,14.2z M36.7,15.2
	c-0.4,0-0.9,0.1-1.1,0.6c-0.1,0.2-0.1,0.3-0.1,0.5c0,0.1,0,0.1,0.1,0.1c0.3,0,0.5,0.1,0.8,0.1c0.2,0,0.3,0,0.4,0
	c0.2,0,0.4-0.2,0.5-0.4c0-0.1,0-0.2,0-0.4c0-0.2-0.1-0.4-0.3-0.4C36.9,15.2,36.8,15.2,36.7,15.2z M14.3,15.2c-0.3,0-0.6,0.1-0.9,0.2
	c-0.1,0-0.1,0.1-0.1,0.2c0,0.4,0,0.8,0,1.2v1.2c0,0.1,0,0.2,0.1,0.2c0.3,0.2,0.7,0.2,1,0.2c0.2,0,0.5-0.1,0.6-0.2
	c0.2-0.1,0.3-0.3,0.3-0.6c0.1-0.4,0.1-0.9,0.1-1.3c0-0.2-0.1-0.5-0.2-0.7c-0.1-0.3-0.4-0.5-0.7-0.5C14.5,15.3,14.4,15.3,14.3,15.2z
	 M18.5,21.9c0.1,0,0.3,0,0.4,0.1c0.3,0.1,0.5,0.4,0.5,0.7c0.1,0.7-0.4,1-1,1c-0.1,0-0.2,0-0.2,0c-0.5-0.1-0.7-0.5-0.6-1
	c0-0.4,0.4-0.7,0.8-0.7C18.4,21.9,18.5,21.9,18.5,21.9z M24.7,22h1c0.2,0,0.3,0.1,0.3,0.3V30c0,0.2-0.1,0.3-0.3,0.3
	c-0.3,0-0.5,0-0.8,0h-0.2c-0.1,0-0.2-0.1-0.3-0.2c0-0.1,0-0.2-0.1-0.3c-0.1,0-0.1,0.1-0.1,0.1c-0.7,0.5-1.4,0.6-2.2,0.4
	c-0.6-0.2-1-0.6-1.3-1.1c-0.2-0.5-0.4-1-0.4-1.6c0-0.6,0-1.2,0.3-1.7c0.2-0.6,0.6-1,1.2-1.3c0.8-0.4,1.6-0.3,2.4,0.2
	c0.1,0,0.1,0.1,0.2,0.1c0-0.1,0-0.1,0-0.2v-2.4C24.4,22,24.4,22,24.7,22z M36,24.4c0.2,0,0.5,0,0.7,0.1c1,0.3,1.6,0.9,1.9,1.9
	c0,0.1,0.1,0.3,0.1,0.4c0,0,0,0,0,0h0v0.1h0c0,0,0,0,0,0v0.1c0,0,0,0.1,0,0.1v0c0,0,0,0,0,0v0.8h0c0,0,0,0,0,0v0c0,0,0,0.1,0,0.1
	v0.1h0c-0.1,1-0.7,2.2-2.3,2.4c-0.5,0.1-0.9,0-1.4-0.1c-0.8-0.2-1.4-0.7-1.7-1.5c-0.3-0.9-0.3-1.9,0-2.8c0.3-0.9,1.1-1.5,2.1-1.6
	C35.5,24.4,35.7,24.4,36,24.4z M29.9,24.4c0.4,0,0.7,0,1.1,0.1c0.6,0.2,1.1,0.6,1.2,1.3c0.1,0.3,0.1,0.5,0,0.8
	c-0.1,0.4-0.4,0.8-0.7,1C31,27.9,30.6,28,30.2,28c-0.5,0-1,0-1.5-0.1c0,0-0.1,0-0.1,0c0,0.2,0,0.3,0.1,0.5c0.1,0.5,0.5,0.8,1,0.9
	c0.5,0.1,1,0.1,1.5-0.1c0.2,0,0.3-0.1,0.5-0.1c0.2-0.1,0.3,0,0.3,0.2v0.5c0,0.2-0.1,0.3-0.3,0.4c-0.5,0.2-1,0.3-1.6,0.3
	c-0.4,0-0.7,0-1.1-0.1c-0.8-0.2-1.4-0.7-1.7-1.6c-0.3-0.8-0.3-1.7,0-2.5C27.7,25.1,28.6,24.5,29.9,24.4z M11.4,24.6
	c0.4,0,0.8,0,1.3,0c0.2,0,0.3,0.1,0.3,0.3c0.1,0.3,0.2,0.6,0.2,0.8c0.3,1,0.6,2.1,0.9,3.1c0,0,0,0,0,0c0-0.1,0.1-0.3,0.1-0.4
	c0.3-1.1,0.7-2.3,1-3.4l0-0.1c0-0.1,0.2-0.2,0.3-0.2h1.1c0.3,0,0.3,0.1,0.2,0.3l-0.4,1.2c-0.5,1.3-1,2.6-1.5,3.9c0,0,0,0.1-0.1,0.1
	c-0.1,0.2-0.2,0.3-0.4,0.2c-0.3,0-0.6,0-1,0c-0.2,0-0.4-0.1-0.4-0.3c-0.2-0.5-0.4-1-0.6-1.5c-0.4-1.2-0.9-2.3-1.3-3.5
	c0-0.1-0.1-0.2-0.1-0.3C11.2,24.6,11.3,24.6,11.4,24.6z M18,24.6h1.1c0.2,0,0.3,0.1,0.3,0.3v2.6v2.7c0,0.1-0.1,0.2-0.2,0.2
	c-0.4,0-0.8,0-1.2,0c-0.1,0-0.2-0.1-0.2-0.2c0,0,0-0.1,0-0.1v-5.1C17.7,24.6,17.8,24.6,18,24.6z M29.7,25.6c-0.3,0-0.6,0.2-0.8,0.4
	c-0.2,0.2-0.2,0.5-0.3,0.8c0,0.1,0,0.1,0.1,0.1c0.3,0,0.6,0.1,0.9,0.1c0.2,0,0.3,0,0.5,0c0.3-0.1,0.5-0.2,0.6-0.5
	c0.1-0.4,0-0.8-0.5-0.9c0,0-0.1,0-0.1,0C29.9,25.6,29.8,25.6,29.7,25.6z M23.1,25.6c-0.3,0-0.6,0.2-0.8,0.5
	c-0.1,0.1-0.1,0.2-0.1,0.4c-0.1,0.5-0.1,0.9-0.1,1.4c0,0.3,0.1,0.5,0.2,0.7c0.2,0.3,0.5,0.5,0.8,0.5c0.4,0.1,0.8,0,1.2-0.2
	c0.1,0,0.1-0.1,0.1-0.2v-1.3c0-0.5,0-0.9,0-1.3c0-0.1,0-0.2-0.1-0.2C23.9,25.7,23.5,25.6,23.1,25.6z M35.7,25.7
	c-0.3,0-0.6,0.2-0.8,0.5c-0.1,0.1-0.2,0.3-0.2,0.5c-0.1,0.4-0.1,0.9-0.1,1.3c0,0.3,0.1,0.5,0.2,0.7c0.1,0.3,0.4,0.5,0.7,0.6
	c0.1,0,0.3,0,0.4,0c0.3,0,0.5-0.2,0.7-0.4c0.1-0.1,0.2-0.3,0.2-0.4c0.1-0.3,0.1-0.6,0.1-0.9c0-0.1,0-0.3,0-0.4
	c0-0.3-0.1-0.6-0.2-0.8c-0.1-0.3-0.4-0.5-0.7-0.5C36,25.7,35.8,25.7,35.7,25.7z M35.7,32.7c0.4,0,0.8,0,1.2,0.1
	c0.1,0,0.2,0.1,0.3,0.1c0.1,0.1,0.2,0.2,0.2,0.3c0,0.2,0,0.3,0,0.5c-0.1,1-0.4,2-0.9,2.9c-0.2,0.3-0.4,0.6-0.7,0.9
	c-0.1,0.1-0.1,0.1-0.2,0.1c-0.1,0-0.2,0-0.2-0.1c0-0.1,0-0.1,0-0.2c0.2-0.6,0.4-1.1,0.6-1.7c0.1-0.3,0.2-0.6,0.2-1
	c0-0.1,0-0.2,0-0.4c0-0.2-0.1-0.4-0.3-0.4c-0.2-0.1-0.4-0.1-0.6-0.1c-0.6,0-1.1,0-1.6,0.1L33,33.9c-0.1,0-0.1,0-0.2-0.1s0-0.1,0-0.2
	c0-0.1,0.1-0.1,0.2-0.2c0.4-0.3,0.9-0.5,1.5-0.6C34.8,32.7,35.3,32.7,35.7,32.7z M12.7,33c0,0,0.1,0,0.1,0c0.1,0,0.1,0,0.2,0.1
	c2.1,1.3,4.5,2.3,7,2.9c0.8,0.2,1.7,0.3,2.5,0.4c1.2,0.2,2.4,0.2,3.6,0.2c0.7,0,1.3-0.1,1.9-0.2c1.5-0.2,3-0.5,4.4-1
	c0.8-0.3,1.5-0.5,2.2-0.9c0.1-0.1,0.2-0.1,0.4,0c0.2,0,0.3,0.3,0.3,0.5c0,0,0,0.1,0,0.1c0,0.1-0.1,0.2-0.2,0.2
	c-0.7,0.5-1.4,1-2.2,1.4c-1.5,0.7-3.1,1.3-4.7,1.6c-0.9,0.2-1.9,0.3-2.8,0.3c-0.2,0-0.5,0-0.7,0c-0.3,0-0.7,0-1-0.1
	c-0.9-0.1-1.7-0.2-2.6-0.4c-2.9-0.7-5.5-2.1-7.8-4c-0.2-0.2-0.4-0.4-0.6-0.6c0,0-0.1-0.1-0.1-0.2c0-0.1,0-0.2,0-0.2
	C12.7,33,12.7,33,12.7,33z"/>
</svg>
