<?xml version="1.0" encoding="utf-8"?>
<!-- Generator: Adobe Illustrator 27.1.1, SVG Export Plug-In . SVG Version: 6.00 Build 0)  -->
<svg version="1.1" id="Calque_1" focusable="false" xmlns="http://www.w3.org/2000/svg" xmlns:xlink="http://www.w3.org/1999/xlink"
	 x="0px" y="0px" viewBox="0 0 800 800" style="enable-background:new 0 0 800 800;" xml:space="preserve">
<style type="text/css">
	.st0{fill:#DE0031;}
</style>
<path class="st0" d="M205.21,405.7c-0.57,0-0.99-36.45-0.99-79.86v-78.91l56.99-56.98l56.99-56.97v79.83v79.83h79.03h79.03
	l-56.63,56.64L363,405.91h-78.45c-43.15,0-78.88,0-79.39-1.42L205.21,405.7z M555.68,346.49l-54.52-54.54v-91.09v-91.11h-91.12
	h-91.12l-54.86-54.88L209.21,0h200.85h200.85v200.5c0,110.29-0.14,200.51-0.43,200.51c-0.14,0-24.89-24.54-54.88-54.53H555.68z
	 M0.41,799.79c0,0,9.87-25.11,21.93-55.01c29.83-73.98,55.04-136.57,62.84-156.01l6.48-16.15h33.12h33.12l50.33,113.21
	c27.68,62.26,50.35,113.41,50.38,113.67c0.02,0-13.72,0-30.54,0h-30.58l-4.71-11.19c-2.59-6.15-6.73-16.2-9.2-22.32l-4.5-11.13
	H128.1H77.11l-8.27,22.05l-8.27,22.05l-30.08,0.92c-16.54,0-30.08,0-30.08,0L0.41,799.79z M161.97,714.72
	c-0.18,0-8.28-19.71-17.9-42.97c-9.62-23.26-17.78-42.61-18.13-43c-0.55-0.92-11.43,27.41-31.36,80.51l-2.3,6.15h35.05
	c19.28,0,34.87,0,34.64-0.92L161.97,714.72z M285.03,686.3V572.64h24.83h24.83l36.22,41.86c19.92,23.02,36.54,41.74,36.92,41.6
	c0.73,0,4.87-5.05,49.36-56.41l23.42-27.05h24.97h24.97V686.3v113.67h-28.64h-28.64L473,729.44l-0.28-70.53l-26.37,30.69
	c-14.5,16.88-28.21,32.85-30.46,35.5c-3.84,4.5-4.36,4.77-8.3,4.86l-4.21,0.03l-30.35-35.34l-30.35-35.34l-0.28,70.35L342.13,800
	H313.5h-28.64V686.34L285.03,686.3z M573.29,686.24V572.51h61.61h61.61l11.01,2.39c12.23,2.66,24.35,6.7,32.63,10.84
	c25.58,12.76,44.87,34.83,53.5,61.17c3.91,11.92,5.3,20.17,5.82,34.26c1,27.51-4.52,49.74-17.09,68.81
	c-17.8,27.03-47.57,43.17-89.04,48.3c-4.62,0.92-30.24,0.92-63.88,0.92h-56.17V685.46L573.29,686.24z M674.87,758.17
	c13.35-1.1,20.75-2.94,30.72-7.8c10.02-4.77,17.86-11.68,23.98-21.01c8.24-12.56,12.74-31.38,11.6-48.55
	c-2.01-30.15-15.55-50.69-39.79-60.32c-12.34-4.86-15.76-5.32-44.21-5.78l-26.6-0.92v72.38v72.39h17.05c9.38,0,21.64,0,27.25-0.92
	V758.17z"/>
</svg>
