<?xml version="1.0" encoding="utf-8"?>
<!-- Generator: Adobe Illustrator 27.1.1, SVG Export Plug-In . SVG Version: 6.00 Build 0)  -->
<svg version="1.1" xmlns="http://www.w3.org/2000/svg" xmlns:xlink="http://www.w3.org/1999/xlink" x="0px" y="0px"
	 viewBox="0 0 512 512" style="enable-background:new 0 0 512 512;" xml:space="preserve">
<style type="text/css">
	.st0{fill:#F45142;}
	.st1{fill:#FFFFFF;}
</style>
<g id="Calque_2">
</g>
<g id="Calque_1">
	<g>
		<g>
			<path class="st0" d="M292.69,485.01c5.57,3.75,11.64,5.25,17.53,6.72c10.12,2.53,20.22,5.11,30.19,8.18
				c1.69,0.52,4.26,0.89,4.17,2.84c-0.09,1.9-2.58,1.94-4.37,2.27c-10.58,1.97-21.1,2.33-31.88,1.14
				c-7.82-0.86-15.75-1.09-23.57-2.26c-23.82-3.57-47.02-9.22-67.14-23.22c-10.72-7.46-17.49-18.71-24.48-29.44
				c-14.48-22.2-24.39-46.4-31.27-72.01c-3.85-14.33-8.53-28.45-12.14-42.87c-4.17-16.68-7.44-33.47-8.73-50.67
				c-1.58-21.06-7.38-41.1-15.77-60.43c-1.68-3.87-2.81-7.97-4.22-11.96c-1.43-4.07-3.82-5.91-8.6-6.51
				c-12.78-1.61-22.81,1.86-30.32,12.58c-2.06,2.94-5.48,4.73-8.68,6.41c-3.02,1.59-6.19,2.33-9.17-0.22
				c-3.32-2.84-4.12-6.62-2.66-10.41c1.83-4.76,5.03-8.48,10.17-10.3c7.7-2.72,8.67-5.13,5.99-13.56
				c-2.21-6.97-5.13-8.17-12.69-6.88c-7.72,1.31-15.34,3.27-23.24,3.7c-4.11,0.22-7.56-1.15-10.72-3.17
				c-2.86-1.83-6.07-4.36-4.69-8.36c1.41-4.09,3.78-7.65,9.11-7.61c5.45,0.04,10.78,0.66,16.11,1.78c4.82,1.01,9.45-0.47,14.04-1.68
				c4.79-1.27,5.59-4.87,5.48-9.24c-0.1-4.17-2.65-5.14-6-6.48c-4.62-1.84-9.46-1.59-14.08-2.07c-10.63-1.11-18.33-7.61-26.77-12.77
				c-2.35-1.44-3.03-4.55-1.81-7.14c1.48-3.15,2.54-6.96,7.1-7.33c8.04-0.65,14.89,2.39,20.99,7.12c2.17,1.68,4.15,2.38,6.74,2.32
				c5.16-0.11,10.33-0.18,15.49,0.02c3.15,0.13,3.81-1.28,3.18-3.91c-2.8-11.7-6.56-22.96-14.26-32.55
				c-3.75-4.67-6.26-9.98-6.62-16.11c-0.16-2.74,0.18-5.69,2.96-6.7c2.51-0.92,4.83,0.22,7.14,2.19
				C75.34,85.05,80.8,96.76,87.07,108c3.48,6.24,5.91,13.34,12.71,17.18c4.26,2.41,8.41,4.25,13.32,1.38
				c4.72-2.76,6.26-6.99,6.35-12.03c0.09-5,0.02-10,0.02-14.99c0-1,0.01-2,0-3c-0.04-4.23,1.86-7.78,5.55-9.28
				c4.39-1.79,6.74,2.42,8.62,5.17c2.97,4.35,4.44,9.56,4.53,14.9c0.27,16.15,0.36,32.3,0.53,48.45c0.03,2.71-2.27,6.67,3.51,6.3
				c2.28-0.15,3.37-0.62,3.96-3.25c2.1-9.37,3.35-19.03,7.85-27.69c4.29-8.24,9.25-16.02,17.9-20.48c5.37-2.77,10.7-1.78,15.39,1.22
				c3.66,2.34,5.94,0.98,8-1.63c2-2.53,0.71-7.58-2.04-9.1c-4.07-2.25-8.51-2.26-12.99-2.11c-1.28,0.04-2.87,0.47-3.61-0.98
				c-0.71-1.38,0.92-1.93,1.54-2.77c12.55-16.93,24.61-34.22,38.75-49.96c8.12-9.05,17.63-15.69,28.74-20.14
				c10.53-4.22,20.37-9.59,29.55-16.22c1.55-1.12,3.53-3.16,5.15-1.55c1.43,1.42,0.85,4.02-0.18,6.1
				c-3.57,7.21-7.56,14.23-9.96,21.98c-2.09,6.72-3.73,13.46-2.17,20.6c0.67,3.08,1.51,5.94,3.82,8.27
				c26.65,26.97,46.03,58.2,56.1,95c1.57,5.75,3.35,11.35,2.99,17.42c-0.22,3.79,0.25,7.95,5.04,8.07c4.17,0.11,6.56-2.55,7.05-7.21
				c1.4-13.48,3.54-26.89,4.79-40.39c1.36-14.68,6.15-27.83,15.61-39.13c2.98-3.56,6.84-6.11,11.36-7.61
				c4.21-1.39,7.06,0.64,9.51,3.53c2.41,2.85,1.73,5.76-0.33,8.56c-3.64,4.94-6.5,10.29-8.43,16.12c-1.95,5.88-0.03,8.7,6.18,8.24
				c6.33-0.47,12.23-2.34,16.92-7.13c9.34-9.51,18.64-19.07,28.31-28.22c5.16-4.88,10.2-10.67,18.59-9.56
				c0.66,0.09,1.42-0.17,1.98,0.08c2.9,1.27,7.05,1.08,8.02,4.85c0.9,3.48-1.39,6.31-3.8,8.61c-5.75,5.5-11.05,11.44-17.25,16.52
				c-5.11,4.19-7.35,10.48-8.52,16.83c-0.72,3.93,1.66,6.42,5.77,6.04c6.37-0.59,12.68-1.99,19.05-2.3
				c6.47-0.32,12.76-2.69,19.5-0.82c4.47,1.24,5.17,3.72,4.39,7.28c-1.72,7.77-7.42,11.8-14.51,13.84
				c-9.73,2.8-19.36,6.2-29.74,6.14c-4.05-0.02-7.59,6.04-6.35,10.42c1.11,3.93,3.35,6.68,7.16,8.76
				c6.62,3.61,13.25,7.33,18.51,13.02c2.19,2.37,3.13,5.03,3.16,8c0.05,5.03-3.39,7.43-7.99,5.58c-5.82-2.35-11.28-5.41-15.6-10.07
				c-1.97-2.13-4.09-2.98-7.01-2.87c-5.82,0.22-11.66,0.14-17.49,0.03c-2.82-0.05-3.45,0.68-2.39,3.48
				c2.03,5.4,6.03,9.37,9.35,13.84c1.47,1.97,2.84,4.02,4.11,6.13c1.44,2.39,3.39,4.94,0.46,7.52c-2.88,2.54-6.26,3.06-9.58,1.01
				c-5.24-3.24-9.71-7.42-13.15-12.54c-6.46-9.62-16.68-10.41-25.29-2.29c-10.05,9.47-15.84,21.43-20.78,33.91
				c-4.45,11.27-9.69,22.26-12.53,34.11c-2.73,11.35-2.63,22.76-1.27,34.33c1.63,13.85,6.75,26.23,13.83,38.01
				c11.33,18.83,27.7,31.35,48.33,38.34c12.99,4.4,27.39,18.83,25.93,35.88c-0.67,7.81,2.81,11.39,10.44,14.16
				c8,2.91,16.37,3.54,24.8,3c8.7-0.56,16.99,1.27,25.1,4.03c2.5,0.85,6.3,1.28,6.37,4.51c0.08,3.26-3.76,3.21-6.1,4.04
				c-5.57,1.96-11.28,3.33-17.27,3.53c-2.37,0.08-4.81,0.95-7.04,1.9c-4.4,1.86-8.48,3.88-13.65,2.17
				c-3.86-1.28-6.77,1.21-8.85,4.59c-2.02,3.29,0.64,5.31,2.06,7.37c4.06,5.91,3.73,8.54-2.22,12.93
				c-9.38,6.93-20.23,9.58-31.52,10.89c-7.96,0.92-15.93,0.42-23.92,0.23c-9.99-0.25-19.08-4.24-28.59-6.45
				c-12.43-2.89-25.13-4.07-37.57-6.74c-5.08-1.09-10.19-0.94-15.31-1C296.65,482.88,294.76,483.03,292.69,485.01z M279.98,175.23
				c0.52-12.31-1.57-24.26-8.05-35.18c-4.34-7.32-16.24-13.82-25.24-11.24c-12.41,3.57-20.64,11.65-26.11,22.44
				c-6.86,13.55-8.38,28.54-8.52,43.54c-0.2,21.59,19.56,37.96,40.33,32.96c11.49-2.76,20.75-9.08,24-21.58
				C279.04,196.1,280.22,185.86,279.98,175.23z M156.31,163.06c-0.83,9.31,0.1,19.31,1.92,29.22c1.59,8.72,5.04,16.83,11.77,22.66
				c11.15,9.67,30.36,3.01,35.03-12.14c4.7-15.24,5.59-30.58,1.77-46.05c-3.57-14.45-11.68-25.15-26.37-29.91
				c-11.5-3.73-16.55-1.25-21.11,9.69C155.83,144.89,155.99,153.55,156.31,163.06z M185.01,233.01c-0.5,0-1.03-0.1-1.49,0.02
				c-1.77,0.46-4.29-1.27-5.27,1.14c-1.1,2.71,1.5,3.49,3.21,4.74c3.9,2.86,6.74,6.3,5.61,11.67c-1.34,6.37-1.01,12.84-1.03,19.29
				c0,1.47-0.22,2.88-0.55,4.36c-1.26,5.59-4.16,10.31-7.01,15.11c-0.83,1.41-2.4,2.93-0.75,4.91c1.34,1.61,3.03,1.97,4.93,1.67
				c1.13-0.18,2.25-0.54,3.32-0.94c8.2-3.04,15.94-2.01,23.59,2.08c6.2,3.31,12.74,5.98,19.02,9.16c8.74,4.42,16.95,6.19,26.07-0.02
				c9.63-6.56,15.31-17.51,12.33-28.72c-2.75-10.35-5.91-20.61-4.91-31.45c0.63-6.82-4.35-10.89-10.91-11.06
				c-6.8-0.18-13.53,0.59-20.29,0.95C215.49,236.77,200.25,234.77,185.01,233.01z M283.13,133.09c-0.17-2.96,0.03-6-0.56-8.87
				c-3.28-15.72-16.65-27.43-34.98-25.11c-3.83,0.49-7.73,1.2-9.82,5.41c-1.75,3.53,0.73,5.69,2.31,7.9c1.63,2.27,4.08,1.58,6.05,0
				c6.72-5.38,19.46-1.53,23.92,4.36C274.17,122.23,278.01,127.9,283.13,133.09z"/>
			<path class="st1" d="M279.98,175.23c0.25,10.63-0.94,20.87-3.56,30.95c-3.25,12.5-12.52,18.81-24,21.58
				c-20.77,5-40.53-11.37-40.33-32.96c0.14-15.01,1.65-29.99,8.52-43.54c5.46-10.79,13.7-18.87,26.11-22.44
				c9-2.59,20.89,3.92,25.24,11.24C278.41,150.97,280.49,162.92,279.98,175.23z M233.38,157.03c-2-0.59-3.61,0.68-5.22,2.24
				c-7.77,7.56-8.24,22.47-2.14,31.07c5.18,7.3,12.91,6.31,16.88-1.85c3.23-6.63,3.26-13.73,1.86-20.71
				C243.45,161.28,238.72,157.1,233.38,157.03z"/>
			<path class="st1" d="M156.31,163.06c-0.32-9.51-0.47-18.17,3.01-26.52c4.56-10.93,9.61-13.42,21.11-9.69
				c14.69,4.76,22.8,15.46,26.37,29.91c3.82,15.47,2.93,30.8-1.77,46.05c-4.67,15.15-23.89,21.8-35.03,12.14
				c-6.73-5.84-10.17-13.95-11.77-22.66C156.41,182.38,155.48,172.37,156.31,163.06z M201.03,173.21c0-7.36-0.57-9.97-2.96-14.01
				c-4.19-7.1-11.75-7.32-16.33-0.52c-5.56,8.26-4.92,20.15-0.18,28.18c3.91,6.62,9.67,6.94,14.87,1.23
				C200.37,183.76,201.45,178.44,201.03,173.21z"/>
			<path class="st1" d="M185.01,233.01c15.24,1.76,30.48,3.76,45.86,2.93c6.76-0.36,13.5-1.13,20.29-0.95
				c6.56,0.17,11.54,4.24,10.91,11.06c-1,10.84,2.15,21.1,4.91,31.45c2.98,11.21-2.7,22.15-12.33,28.72
				c-9.12,6.21-17.34,4.44-26.07,0.02c-6.28-3.18-12.82-5.85-19.02-9.16c-7.66-4.09-15.39-5.12-23.59-2.08
				c-1.08,0.4-2.19,0.76-3.32,0.94c-1.89,0.3-3.58-0.06-4.93-1.67c-1.65-1.98-0.09-3.5,0.75-4.91c2.85-4.81,5.75-9.53,7.01-15.11
				c0.33-1.48,0.55-2.89,0.55-4.36c0.02-6.45-0.31-12.92,1.03-19.29c1.13-5.37-1.71-8.81-5.61-11.67c-1.71-1.25-4.31-2.03-3.21-4.74
				c0.98-2.41,3.5-0.69,5.27-1.14C183.98,232.9,184.51,233.01,185.01,233.01z M180.09,292.76c1.95,0.33,3.23-0.12,4.68-0.62
				c8.79-3.03,17.42-2.82,25.69,1.95c6.86,3.95,14.04,7.27,21.39,10.18c5.24,2.08,10.4,4.84,16.43,1.88
				c2.64-1.3,5.24-2.79,7.28-4.62c6.66-5.98,12.25-14.38,8.34-24.73c-3.7-9.78-5.15-19.81-4.92-30.21
				c0.14-6.55-2.51-8.77-10.46-8.22c4.1,2.26,3.23,5.25,1.77,7.72c-2.16,3.67-6.44,5.96-9.95,4.61c-4.89-1.87-2.96-8.14-5.49-13.4
				c0,5.19-0.01,9.12,0.01,13.04c0.01,1.97-0.45,2.98-2.74,3.85c-6.44,2.45-12.98,3.03-19.74,2.86c-3.11-0.08-4.2-2.06-3.18-4.16
				c1.99-4.1-0.36-8.49,1.56-12.57c0.81-1.72-1.59-1.35-2.73-1.93c0,2.46,0,4.79,0,7.12c0,2.5-0.03,5,0.01,7.5
				c0.02,1.71,0.13,3.54-2.06,3.94c-3.99,0.72-8.03-0.15-11.6-1.43c-2.73-0.98-2.21-4.67-2.42-7.47c-0.19-2.54-1.09-5.02-1.71-7.52
				c-1.24-5-1.25-5-6.55-3.86c4.42,2.82,6.6,6.8,6.39,12.21c-0.24,6.09-1.64,12.1-1.05,18.25c0.72,7.51-2.19,14-5.87,20.25
				C182.16,289.03,181.23,290.73,180.09,292.76z"/>
			<path d="M233.38,157.03c5.34,0.07,10.08,4.25,11.38,10.75c1.4,6.98,1.37,14.08-1.86,20.71c-3.97,8.16-11.7,9.15-16.88,1.85
				c-6.1-8.59-5.63-23.5,2.14-31.07C229.77,157.7,231.37,156.43,233.38,157.03z"/>
			<path d="M201.03,173.21c0.43,5.23-0.66,10.55-4.6,14.87c-5.2,5.71-10.95,5.39-14.87-1.23c-4.74-8.02-5.38-19.92,0.18-28.18
				c4.58-6.8,12.13-6.58,16.33,0.52C200.46,163.24,201.03,165.85,201.03,173.21z"/>
			<path d="M180.09,292.76c1.15-2.03,2.07-3.73,3.06-5.39c3.68-6.25,6.6-12.74,5.87-20.25c-0.59-6.14,0.81-12.16,1.05-18.25
				c0.21-5.41-1.96-9.39-6.39-12.21c5.3-1.14,5.31-1.14,6.55,3.86c0.62,2.5,1.52,4.98,1.71,7.52c0.21,2.81-0.3,6.5,2.42,7.47
				c3.57,1.28,7.62,2.15,11.6,1.43c2.19-0.4,2.08-2.23,2.06-3.94c-0.03-2.5-0.01-5-0.01-7.5c0-2.33,0-4.66,0-7.12
				c1.14,0.58,3.54,0.2,2.73,1.93c-1.92,4.08,0.43,8.47-1.56,12.57c-1.02,2.11,0.07,4.08,3.18,4.16c6.76,0.17,13.3-0.41,19.74-2.86
				c2.29-0.87,2.75-1.88,2.74-3.85c-0.02-3.92-0.01-7.85-0.01-13.04c2.53,5.26,0.6,11.53,5.49,13.4c3.51,1.35,7.79-0.94,9.95-4.61
				c1.46-2.47,2.33-5.46-1.77-7.72c7.94-0.55,10.6,1.67,10.46,8.22c-0.23,10.39,1.22,20.43,4.92,30.21
				c3.91,10.35-1.67,18.76-8.34,24.73c-2.04,1.83-4.64,3.32-7.28,4.62c-6.03,2.96-11.19,0.2-16.43-1.88
				c-7.35-2.91-14.53-6.22-21.39-10.18c-8.27-4.77-16.89-4.97-25.69-1.95C183.32,292.63,182.04,293.09,180.09,292.76z"/>
		</g>
	</g>
</g>
</svg>
