<?xml version="1.0" encoding="utf-8"?>
<!-- Generator: Adobe Illustrator 27.1.1, SVG Export Plug-In . SVG Version: 6.00 Build 0)  -->
<svg version="1.1" id="Calque_2_00000017514600447446296410000016262011085320115842_"
	 xmlns="http://www.w3.org/2000/svg" xmlns:xlink="http://www.w3.org/1999/xlink" x="0px" y="0px" viewBox="0 0 141.8 77.1"
	 style="enable-background:new 0 0 141.8 77.1;" xml:space="preserve">
<style type="text/css">
	.st0{fill-rule:evenodd;clip-rule:evenodd;fill:#1D1D1B;}
	.st1{fill-rule:evenodd;clip-rule:evenodd;fill:#FFFFFF;}
</style>
<rect x="-6.4" y="-3.5" class="st0" width="158.2" height="86"/>
<g id="canal-plus">
	<path class="st1" d="M41.1,5.7c-2.3,0.2-3.7,0.5-6,1c-3.7,0.9-9.6,3.7-12.3,5.9c-0.3,0.2-0.9,0.7-1.2,1c-2.1,1.7-5,5.2-6.5,7.7
		c-0.6,1-1.6,3.1-1.9,3.8c-0.1,0.4-0.3,0.8-0.4,1c-0.6,1.5-1.7,5.3-2.1,7.8c-1.2,6.9-0.2,14.7,2.7,21c0.6,1.3,2.4,4.3,2.6,4.5
		c0.1,0,0.4,0.5,0.7,0.9c2.7,3.6,7.8,7.3,12.1,8.9c0.3,0.1,0.7,0.3,0.9,0.3c0.5,0.2,1.2,0.4,2.1,0.7c0.4,0.1,0.9,0.3,1.2,0.3
		c3.8,1.2,12.1,1.3,16.9,0.3c2.9-0.6,5.6-1.5,6.2-2.1c0.2-0.2,0.5-1.3,0.7-2.2c0.1-0.4,0.2-1.1,0.2-1.5c0.1-0.4,0.2-1.2,0.3-1.7
		s0.4-2.1,0.6-3.5c1.2-7,1.2-6.8,0.1-6.3c-2.2,1-5.2,2-7.2,2.3c-0.5,0.1-1.3,0.3-1.7,0.3c-0.9,0.2-5.7,0.2-6.6,0
		c-0.4-0.1-1.3-0.3-1.9-0.4c-5.4-1.2-9.4-4.6-11.5-9.8c-1.4-3.4-1.4-7.9-0.2-12.6c0.4-1.5,1.4-3.6,2.1-4.6c0.2-0.3,0.4-0.6,0.4-0.6
		c0-0.1,0.8-1,1.7-1.9c1.7-1.8,3.8-3.1,6.8-4.2c4.5-1.7,11-1.6,16.2,0.3c0.5,0.2,1.2,0.4,1.3,0.5c0.6,0.2,3.3,1.6,4.2,2.2
		c1.9,1.3,2.2,1.3,2.4,0.3c0.2-1.3,0.4-2.3,0.6-3c0.1-0.4,0.2-1.2,0.3-1.7c0.1-0.5,0.4-1.9,0.6-3.2c0.2-1.2,0.5-2.6,0.6-3.1
		s0.2-0.9,0.2-1.1c0.3-1,0.3-1.7-0.1-2.1c-0.4-0.4-3.1-2.1-3.3-2.1c0,0-0.4-0.2-0.9-0.3c-1.3-0.6-1.4-0.6-2.7-1.1
		C56.4,7,54.7,6.6,51.2,6C48.5,5.5,44.1,5.4,41.1,5.7"/>
	<path class="st1" d="M90.7,17.1c0,5.7-0.1,10.4-0.2,10.5c-0.1,0.1-5.3,0.2-11.6,0.2l-11.5,0l0,8.9l0,8.9l11.4,0.1
		c6.3,0,11.5,0.2,11.6,0.2c0.1,0.1,0.2,5.5,0.2,12l0.1,11.9h17.8V58c0-11.5,0-11.8,0.3-12.1s0.6-0.3,11.3-0.3h11l0.3-0.4
		c0.4-0.5,0.4-16.9,0-17.4c-0.2-0.3-0.6-0.3-11.5-0.4l-11.3-0.1l0-10.3l0-10.3H90.7L90.7,17.1"/>
</g>
</svg>
