<?xml version="1.0" encoding="utf-8"?>
<!-- Generator: Adobe Illustrator 27.1.1, SVG Export Plug-In . SVG Version: 6.00 Build 0)  -->
<svg version="1.1" id="Calque_1" xmlns="http://www.w3.org/2000/svg" xmlns:xlink="http://www.w3.org/1999/xlink" x="0px" y="0px"
	 viewBox="0 0 512 512" style="enable-background:new 0 0 512 512;" xml:space="preserve">
<style type="text/css">
	.st0{fill:#012169;}
	.st1{fill:#022269;}
	.st2{fill:#95A2C0;}
	.st3{fill:#E3E6EE;}
</style>
<g>
	<g>
		<path class="st0" d="M365.83,72.73c21.22,0,42.44-0.06,63.67,0.04c5.77,0.03,11.15,1.5,15.24,6.01c3.25,3.59,5.2,7.76,5.21,12.63
			c0.03,41.85,0.05,83.7-0.03,125.55c-0.01,3.82-0.85,7.6-3.78,10.51c-3.96,3.94-11.04,4.32-15.59,0.67
			c-2.43-1.95-4.78-4.03-7.04-6.19c-5.44-5.22-10.81-10.52-16.21-15.77c-1.73-1.68-3.6-1.71-5.28-0.02
			c-12.47,12.52-24.94,25.04-37.39,37.58c-4.21,4.24-8.37,8.53-12.58,12.77c-13.1,13.19-26.19,26.39-39.34,39.53
			c-5.93,5.93-13.14,7.29-20.95,4.92c-2.45-0.74-4.75-2.49-6.7-4.24c-4.38-3.93-8.5-8.15-12.74-12.23
			c-2.78-2.68-5.59-5.32-8.37-7.99c-3.92-3.77-7.82-7.55-11.74-11.32c-3.02-2.9-6.05-5.79-9.07-8.68c-6-5.74-12-11.49-18.02-17.22
			c-4.76-4.53-7.12-10.05-6.49-16.6c0.37-3.8,1.94-7.27,4.48-10.17c2.32-2.65,4.76-5.19,7.24-7.69
			c17.82-17.85,35.69-35.66,53.5-53.52c10.7-10.74,21.32-21.56,31.97-32.34c1.41-1.42,1.29-3.09-0.29-4.56
			c-2.1-1.95-4.21-3.9-6.28-5.89c-4.39-4.23-8.84-8.4-13.1-12.76c-1.99-2.04-3.92-4.29-5.31-6.75c-3.51-6.2,0.86-14.71,7.9-15.7
			c2.37-0.33,4.78-0.52,7.18-0.53C325.88,72.7,345.86,72.72,365.83,72.73C365.83,72.72,365.83,72.73,365.83,72.73z"/>
		<path class="st0" d="M333.32,413.07c-5.38-5.53-12.03-9.97-15.43-17.2c-1.88-4-2.06-8.27-1.01-12.64
			c1.14-4.76,3.95-8.36,7.31-11.7c7.7-7.64,15.36-15.3,23-23c13.46-13.56,26.89-27.15,40.33-40.73
			c12.65-12.78,25.3-25.57,37.96-38.35c1.55-1.57,3.03-3.22,4.71-4.63c5.6-4.69,16.18-1.85,18.35,5.53
			c1.44,4.91,0.51,9.45-3.23,13.19c-4.92,4.93-9.86,9.84-14.77,14.78c-18.38,18.5-36.76,36.98-55.1,55.51
			c-11.17,11.29-22.27,22.65-33.6,34.19c2.07,1.95,4.22,3.92,6.31,5.95c2.92,2.83,5.79,5.73,8.71,8.57c3.19,3.1,6.44,6.14,9.62,9.25
			c3.39,3.32,5.22,7.22,5.13,12.12c-0.12,6.92-4.68,11.62-10.76,13.16c-1.68,0.43-3.48,0.55-5.23,0.55
			c-46.4,0.03-92.79-0.01-139.19,0.06c-6.34,0.01-11.63-2.08-15.76-6.84c-3.04-3.49-4.94-7.53-4.94-12.29
			c0-46.98,0-93.97,0.01-140.95c0-5.96,5.36-13.01,11.05-13.83c5.48-0.79,10.62,0.47,14.73,4.55c1.35,1.34,2.67,2.71,4.01,4.07
			c15.53,15.67,31.01,31.38,46.62,46.97c3.03,3.03,4.12,9.69,2.16,13.55c-2.12,4.17-5.09,6.09-9.78,6.63
			c-4.44,0.52-7.43-1.23-10.25-4.05c-9.85-9.85-19.71-19.7-29.54-29.57c-1.29-1.29-2.45-2.71-3.7-4.04
			c-0.28-0.3-0.67-0.51-1.34-1.01c0,37.78,0,75.17,0,112.79c0.63,0.03,1.32,0.09,2.02,0.09c33.25,0.06,66.5,0.12,99.74,0.17
			c3.94,0.01,7.88-0.05,11.83-0.08c0.13-0.08,0.26-0.15,0.39-0.23C333.57,413.41,333.44,413.24,333.32,413.07z"/>
		<path class="st1" d="M105.34,141.23c22.02,98.84,43.96,197.32,65.94,295.99c-4.73,0-9.38,0.05-14.03-0.07
			c-0.48-0.01-1.13-0.94-1.37-1.57c-1.57-4.22-3.03-8.48-4.55-12.71c-4.14-11.5-8.28-23-12.43-34.49c-2.29-6.37-4.57-12.74-6.9-19.1
			c-3.41-9.33-6.89-18.64-10.28-27.98c-2.29-6.31-4.43-12.68-6.7-18.99c-3.48-9.66-7.04-19.3-10.54-28.95
			c-1.79-4.93-3.49-9.9-5.27-14.83c-2.01-5.57-4.1-11.12-6.12-16.69c-3.04-8.39-6.04-16.79-9.06-25.18
			c-3.41-9.49-6.8-18.99-10.23-28.48c-2.83-7.84-5.72-15.65-8.56-23.48c-1.71-4.71-3.9-9.32-4.97-14.17
			c-1.37-6.22,0.63-12.89,7.67-15.76c8.19-3.34,16.65-6.04,24.97-9.05c3.22-1.16,6.4-2.44,9.61-3.63
			C103.37,141.76,104.25,141.55,105.34,141.23z"/>
		<path class="st0" d="M170.91,342.86c-0.8-3.63-1.61-7.27-2.41-10.9c-1.3-5.91-2.66-11.81-3.89-17.73
			c-1.38-6.59-2.59-13.22-3.97-19.81c-2.33-11.16-4.77-22.3-7.1-33.46c-1.15-5.5-2.11-11.05-3.28-16.55
			c-1.86-8.77-3.88-17.5-5.74-26.27c-1.8-8.51-3.45-17.05-5.21-25.57c-1.84-8.97-3.68-17.93-5.6-26.88
			c-1.33-6.22-2.89-12.4-4.19-18.63c-2.32-11.13-4.36-22.32-6.86-33.41c-1.18-5.24-0.77-9.84,2.81-13.95
			c2.81-3.24,6.42-4.89,10.63-5.54c3.53-0.55,7.01-1.38,10.52-2.07c5.84-1.15,11.69-2.29,17.54-3.42c2.31-0.45,4.63-0.87,7.07-1.32
			c0.06,0.62,0.14,1.06,0.14,1.5c0,84.63,0,169.27,0,253.9C171.22,342.78,171.07,342.82,170.91,342.86z"/>
		<path class="st2" d="M170.91,342.86c0.16-0.04,0.31-0.08,0.47-0.13c0.1,0.47,0.19,0.95,0.29,1.42c-0.16,0.04-0.32,0.07-0.49,0.11
			C171.09,343.8,171,343.33,170.91,342.86z"/>
		<path class="st3" d="M333.32,413.07c0.12,0.17,0.24,0.34,0.37,0.51c-0.13,0.08-0.26,0.15-0.39,0.23
			C333.31,413.56,333.31,413.31,333.32,413.07z"/>
	</g>
</g>
</svg>
