<svg xmlns="http://www.w3.org/2000/svg" xmlns:xlink="http://www.w3.org/1999/xlink" viewBox="0 0 36.866 37"><path d="M 4.209 26.865 L 18.393 35.054 C 18.451 35.088 18.523 35.088 18.58 35.054 L 25.21 31.213 C 25.334 31.141 25.336 30.963 25.213 30.888 L 11.19 22.351 C 11.135 22.317 11.1 22.256 11.1 22.189 L 11.1 14.311 C 11.1 14.243 11.064 14.181 11.005 14.147 L 4.36 10.305 C 4.234 10.232 4.077 10.324 4.077 10.469 L 4.114 26.701 C 4.114 26.769 4.15 26.831 4.209 26.865 Z M 11.645 6.115 L 25.669 14.651 C 25.725 14.685 25.76 14.746 25.76 14.813 L 25.76 22.692 C 25.76 22.759 25.796 22.822 25.855 22.855 L 32.499 26.697 C 32.624 26.77 32.781 26.678 32.781 26.533 L 32.744 10.301 C 32.744 10.233 32.709 10.171 32.65 10.137 L 18.467 1.948 C 18.409 1.914 18.337 1.914 18.279 1.948 L 11.65 5.789 C 11.525 5.861 11.523 6.039 11.645 6.115 Z" fill="rgb(255, 255, 255)"/></svg>
