<?xml version="1.0" encoding="utf-8"?>
<!-- Generator: Adobe Illustrator 27.1.1, SVG Export Plug-In . SVG Version: 6.00 Build 0)  -->
<svg version="1.1" id="Calque_1" xmlns="http://www.w3.org/2000/svg" xmlns:xlink="http://www.w3.org/1999/xlink" x="0px" y="0px"
	 viewBox="0 0 50 50" style="enable-background:new 0 0 50 50;" xml:space="preserve">
<style type="text/css">
	.st0{fill:#FFFFFF;}
	.st1{fill:#0063E5;}
</style>
<rect x="7.5" y="12.7" class="st0" width="34.9" height="24.6"/>
<path class="st1" d="M20,25.2c0,0,0.6-0.9,1.5-1.3s0.7,0.6,0.1,0.9C21.1,25.3,20.6,25.4,20,25.2z M20.5,23.6
	c-0.9,0.2-1.2,0.7-1.1,1.2C19.6,24.4,20.5,23.6,20.5,23.6z M34.8,27.9c-0.4,0.4-1.2,1.6-1.2,1.6s1.2-0.1,1.5-1.1
	C35.5,27.5,35.2,27.5,34.8,27.9z M10.4,28.8c0.7,0.6,1.9,1.1,1.9,1.1l0.1-2.2c-0.5,0-1.8,0.3-2.1,0.4C9.9,28.1,9.7,28.2,10.4,28.8z
	 M46,13v24c0,5-4,9-9,9H13c-5,0-9-4-9-9V13c0-5,4-9,9-9h24C42,4,46,8,46,13z M13.5,21.9l0.6,0.2c0.1,0,0.1,0,0.2-0.1
	c2.3-3.7,6.6-6.3,11.5-6.3c5.8,0,10.7,3.6,12.6,8.5c0,0.1,0.1,0.1,0.2,0.1h0.6c0.1,0,0.1-0.1,0.1-0.1C37.3,18.9,32,15,25.7,15
	c-5.2,0-9.8,2.7-12.3,6.8C13.4,21.8,13.5,21.9,13.5,21.9z M15.9,23.8c-2.8-1.4-3.8-1.5-6-1.4c-2.2,0.1-2.2,1.2-1.7,1.3
	c0.3,0,0.5,0,0.6,0.1c0.1,0,0.1,0,0.1,0c0,0,0-0.1,0-0.1c0,0,0-0.1,0-0.1c0,0-0.6-0.2-0.6-0.2s2.7-0.7,6.1,0.9s4.3,3.8,3.3,4.8
	s-2.6,1.6-4.6,1.1c0-1.4,0-2.5,0-2.5s1.9-0.1,2.4,0.3c0.4,0.3,0.2,0.5-0.1,0.6c0,0-0.1,0.1,0,0.1c0.4,0.2,0.7,0.3,1-0.1
	c0.3-0.4,0.7-2-3.2-1.9c-0.1-0.7,0.1-1.1-0.4-1.8c-0.6-0.7-0.6,1.8-0.6,1.8s-1.4,0.2-2.6,1.1c-1.2,0.8,2.5,2.9,2.5,2.9
	s0.1,0.9,0.6,1c0.5,0.1,0.5-0.7,0.5-0.7s3.2,0.9,5.3-0.9C20.7,28.2,18.7,25.2,15.9,23.8z M19.7,25.8c0.6,0.2,1.6,0.1,2.4-0.6
	c0.7-0.7,1-2-0.2-1.9c0,0-0.5-0.6-1.4-0.3s-2.2,1.6-1.3,2.4C19.1,25.8,19.2,26.5,19.7,25.8z M20.7,30.3c0-0.5,0-2.6-0.1-3.1
	c-0.1-0.4-0.5-0.8-0.7-0.4c0,0-0.2,2-0.1,3.3C19.9,30.7,20.7,30.8,20.7,30.3z M22.7,27.5c0.7-0.1,1.3-0.1,1.9-0.2
	c0.6-0.1,0.7-0.6,0.2-0.7c0,0-1.9-0.4-3.2,0.4c-0.6,0.4-0.5,1.2-0.1,1.2s2.1,0.1,2.6,0.4c0.4,0.3,0.5,0.5,0.1,0.8s-1.5,0.4-1.9,0.3
	c-0.4-0.1-0.6-0.9,0.2-0.5c0.8,0.4,2.2-0.1,1.2-0.4s-1.7-0.2-2.2,0.1c-0.5,0.4,0.2,1.1,0.7,1.3c0.6,0.2,1.6,0.3,2.2-0.1
	s0.9-1.9-0.1-2.1c-1-0.2-1.7-0.2-2.1-0.3C21.7,27.8,21.9,27.6,22.7,27.5z M27.8,26.3c-1.1-1.3-0.5,0.5-0.5,0.8
	c0.1,0.3,0.4,1.5,0.4,2c-0.4-0.5-0.9-1.6-1.4-2.1c-0.5-0.5-0.6-0.1-0.6-0.1s-0.5,1.8-0.4,3s0.7,0.4,0.8,0c0-0.4,0.1-1.5,0.1-1.8
	c0.3,0.7,0.8,1.5,1.2,1.9c0.4,0.4,0.8,0.1,0.9-0.2S28.9,27.6,27.8,26.3z M31.5,29.9c0.4-0.3-0.1-0.6-0.5-0.6c-0.4,0-1.5,0.2-1.5,0.2
	l0.2-0.7c0,0,0.7,0,1.3,0s0.2-0.7,0-0.7c-0.2,0-1,0-1,0l0.2-0.5c0,0,1.3,0,1.7-0.1c0.4-0.1-0.2-0.8-0.7-0.8c-0.5,0-1.5,0.1-2.2,0.2
	c-0.7,0.1,0.5,0.7,0.5,0.7s-0.1,0.4-0.2,0.6c-0.4,0.1-0.4,0.3-0.2,0.6c-0.3,0.7-0.4,1.7,0.4,1.9C30.2,31,31.2,30.2,31.5,29.9z
	 M35.8,27.9c0.1-1.5-1.2-1.2-1.8-0.6s-1.4,1.9-1.4,1.9c0.1-0.9,0.4-1.2,0.9-2.1c0.5-0.8-0.3-0.5-0.3-0.5s-1.8,1.5-1,3.2
	c-0.5,1.3-1.4,3.2-0.1,4.1c0.3,0.2,0.2-0.4,0.3-0.8c0.1-0.4,0.5-2.1,0.8-2.6C34.1,30.5,35.6,30.2,35.8,27.9z M42,27.8
	c0-0.1,0-0.1-0.1-0.1h-2.1c0-0.7-0.1-1.4-0.3-2.1c0,0,0-0.1-0.1-0.1c-0.3,0-0.3,0-0.6,0c-0.1,0-0.1,0.1-0.1,0.1
	c0.1,0.3,0.2,1.1,0.3,2.1h-2c-0.1,0-0.1,0.1-0.1,0.1l-0.1,0.5c0,0.1,0.1,0.2,0.2,0.1l2,0c0,0.8,0,1.2,0,2c0,0.1,0,0.1,0.1,0.1
	c0.3,0,0.5,0,0.6,0c0,0,0.1,0,0.1-0.1c0-0.3,0.1-1.1,0-2.1l2.1,0c0.1,0,0.1-0.1,0.1-0.1C42,28.4,42,27.8,42,27.8z"/>
</svg>
