<?xml version="1.0" encoding="utf-8"?>
<!-- Generator: Adobe Illustrator 27.1.1, SVG Export Plug-In . SVG Version: 6.00 Build 0)  -->
<svg version="1.1" id="Calque_1" xmlns="http://www.w3.org/2000/svg" xmlns:xlink="http://www.w3.org/1999/xlink" x="0px" y="0px"
	 viewBox="0 0 800 800" style="enable-background:new 0 0 800 800;" xml:space="preserve">
<style type="text/css">
	.st0{fill:#FFFFFF;}
	.st1{fill:#52B54B;}
</style>
<rect x="277.9" y="231" class="st0" width="306.4" height="348.1"/>
<path class="st1" d="M368,0c-0.2,0-48.5,47.7-107.3,105.9L153.8,211.7l17.1,17.1l17.1,17.1l-94,93L0,432l61,61.6
	c35.3,35.7,70.7,71.3,106.1,107l45,45.3l16.9-16.5c9.3-9.1,17.2-16.6,17.5-16.6c0.3,0,42.2,42.1,93.1,93.6l92.7,93.6l6.2-6.1
	c7.7-7.5,166.9-165,190.6-188.5l17.3-17.2l-16.7-17.1c-9.2-9.4-16.7-17.3-16.5-17.7c0.1-0.3,42.1-42,93.4-92.8
	c51.3-50.7,93.3-92.5,93.4-92.8c0.2-0.4-120.6-122.8-203.6-206.4l-8.1-8.1l-16.8,16.8c-9.3,9.3-17.2,16.7-17.7,16.6
	c-0.4-0.2-42.3-42.2-93.1-93.5C430,62,399.1,30.9,368,0z M307.4,245.6c3,1.3,265,153.6,265.2,154.2c0.1,0.4-59.4,35.2-132.2,77.3
	c-44.3,25.7-88.7,51.4-133.2,76.9c-0.6,0.2-0.9-42.2-0.9-154.3C306.4,276.4,306.7,245.3,307.4,245.6L307.4,245.6z"/>
</svg>
