<?xml version="1.0" encoding="utf-8"?>
<!-- Generator: Adobe Illustrator 27.1.1, SVG Export Plug-In . SVG Version: 6.00 Build 0)  -->
<svg version="1.1" id="Calque_1" text-rendering="geometricPrecision" shape-rendering="geometricPrecision"
	 xmlns="http://www.w3.org/2000/svg" xmlns:xlink="http://www.w3.org/1999/xlink" x="0px" y="0px" viewBox="0 0 16 16"
	 style="enable-background:new 0 0 16 16;" xml:space="preserve">
<style type="text/css">
	.st0{clip-path:url(#SVGID_00000021820577772217715950000009987555275170613690_);}
	.st1{fill:#538DD7;}
	.st2{fill-rule:evenodd;clip-rule:evenodd;fill:#FFFFFF;}
</style>
<g>
	<defs>
		<rect id="SVGID_1_" y="0" width="16" height="16"/>
	</defs>
	<clipPath id="SVGID_00000047769942762206549150000007801251516604698261_">
		<use xlink:href="#SVGID_1_"  style="overflow:visible;"/>
	</clipPath>
	<g style="clip-path:url(#SVGID_00000047769942762206549150000007801251516604698261_);">
		<g transform="translate(11.3,7)">
			<path class="st1" d="M-9.2-4.5c1,0,1.6-0.2,2.3-0.5s1.3-0.5,2.3-0.5c1,0,1.7,0.2,2.3,0.5l0,0C-1.6-4.7-1-4.5,0-4.5
				c1,0,1.6-0.2,2.3-0.5s1.3-0.5,2.3-0.5c1,0,1.7,0.2,2.3,0.5l0,0c0.7,0.2,1.3,0.5,2.3,0.5c1,0,1.6-0.2,2.3-0.5
				c0.7-0.2,1.3-0.5,2.3-0.5c1,0,1.7,0.2,2.3,0.5l0,0c0.7,0.2,1.3,0.5,2.3,0.5v2c-1,0-1.6-0.2-2.3-0.5l0,0c-0.7-0.2-1.3-0.5-2.3-0.5
				c-1,0-1.6,0.2-2.3,0.5c-0.7,0.2-1.3,0.5-2.3,0.5C8.3-2.5,7.6-2.7,7-3c0,0,0,0,0,0C6.2-3.3,5.6-3.5,4.6-3.5C3.6-3.5,3-3.2,2.3-3
				S1-2.5,0-2.5c-1,0-1.6-0.2-2.3-0.5l0,0C-3-3.3-3.7-3.5-4.6-3.5c-1,0-1.6,0.2-2.3,0.5s-1.3,0.5-2.3,0.5c-1,0-1.6-0.2-2.3-0.5l0,0
				c-0.7-0.2-1.3-0.5-2.3-0.5c-1,0-1.6,0.2-2.3,0.5c-0.7,0.2-1.3,0.5-2.3,0.5v-2c1,0,1.6-0.2,2.3-0.5c0.7-0.2,1.3-0.5,2.3-0.5
				c1,0,1.7,0.2,2.3,0.5l0,0C-10.9-4.7-10.2-4.5-9.2-4.5z M-9.2,3.5c1,0,1.6-0.2,2.3-0.5s1.3-0.5,2.3-0.5c1,0,1.7,0.2,2.3,0.5l0,0
				C-1.6,3.3-1,3.5,0,3.5c1,0,1.6-0.2,2.3-0.5s1.3-0.5,2.3-0.5c1,0,1.7,0.2,2.3,0.5l0,0c0.7,0.2,1.3,0.5,2.3,0.5
				c1,0,1.6-0.2,2.3-0.5c0.7-0.2,1.3-0.5,2.3-0.5c1,0,1.7,0.2,2.3,0.5l0,0c0.7,0.2,1.3,0.5,2.3,0.5v2c-1,0-1.6-0.2-2.3-0.5l0,0
				c-0.7-0.2-1.3-0.5-2.3-0.5c-1,0-1.6,0.2-2.3,0.5c-0.7,0.2-1.3,0.5-2.3,0.5C8.3,5.5,7.6,5.3,7,5c0,0,0,0,0,0
				C6.2,4.7,5.6,4.5,4.6,4.5C3.6,4.5,3,4.8,2.3,5S1,5.5,0,5.5c-1,0-1.6-0.2-2.3-0.5l0,0C-3,4.7-3.7,4.5-4.6,4.5
				c-1,0-1.6,0.2-2.3,0.5s-1.3,0.5-2.3,0.5c-1,0-1.6-0.2-2.3-0.5l0,0c-0.7-0.2-1.3-0.5-2.3-0.5c-1,0-1.6,0.2-2.3,0.5
				c-0.7,0.2-1.3,0.5-2.3,0.5v-2c1,0,1.6-0.2,2.3-0.5c0.7-0.2,1.3-0.5,2.3-0.5c1,0,1.7,0.2,2.3,0.5l0,0C-10.9,3.3-10.2,3.5-9.2,3.5z
				"/>
		</g>
		<rect x="13" y="3" class="st1" width="2" height="8"/>
		<path class="st2" d="M0,16h16V0H0V16z M2,1c0.1,0.4,0.1,2.7,0,7h3v7h10V1H2z"/>
	</g>
</g>
<path d="M2,1C1.4,1,1,1.4,1,2v12c0,0.6,0.4,1,1,1s1-0.4,1-1V2C3,1.4,2.6,1,2,1z"/>
</svg>
