<?xml version="1.0" encoding="utf-8"?>
<!-- Generator: Adobe Illustrator 27.1.1, SVG Export Plug-In . SVG Version: 6.00 Build 0)  -->
<svg version="1.1" id="Calque_1" shape-rendering="geometricPrecision" text-rendering="geometricPrecision"
	 xmlns="http://www.w3.org/2000/svg" xmlns:xlink="http://www.w3.org/1999/xlink" x="0px" y="0px" viewBox="0 0 16 16"
	 style="enable-background:new 0 0 16 16;" xml:space="preserve">
<style type="text/css">
	.st0{clip-path:url(#SVGID_00000062168835449294896480000013568251415448600765_);}
	.st1{fill:#538DD7;}
</style>
<g>
	<g>
		<defs>
			<rect id="SVGID_1_" y="0" width="16" height="16"/>
		</defs>
		<clipPath id="SVGID_00000070081559379214235660000011814930726453001136_">
			<use xlink:href="#SVGID_1_"  style="overflow:visible;"/>
		</clipPath>
		<g style="clip-path:url(#SVGID_00000070081559379214235660000011814930726453001136_);">
			<g transform="translate(11.3,7)">
				<path class="st1" d="M3.7-3.4C3.1-3.4,2.7-3.2,2.2-3C1.5-2.7,0.9-2.5-0.1-2.5S-1.7-2.7-2.4-3l0,0c-0.7-0.2-1.3-0.5-2.3-0.5
					S-6.3-3.3-7-3c-0.7,0.2-1.3,0.5-2.3,0.5v-2c1,0,1.6-0.2,2.3-0.5c0.7-0.2,1.3-0.5,2.3-0.5S-3-5.3-2.4-5l0,0
					c0.6,0.3,1.3,0.5,2.3,0.5S1.5-4.7,2.2-5c0.5-0.2,0.9-0.4,1.5-0.4 M-6.1,4.5c0.2,0,0.4,0,0.6,0c1,0,1.6,0.2,2.3,0.5
					c0.7,0.2,1.3,0.5,2.3,0.5S0.8,5.3,1.4,5l0,0c0.7-0.2,1.3-0.5,2.3-0.5v-2c-1,0-1.6,0.2-2.3,0.5l0,0C0.7,3.2,0.1,3.5-0.9,3.5
					S-2.5,3.3-3.2,3c-0.7-0.2-1.3-0.5-2.3-0.5c-0.2,0-0.4,0-0.6,0"/>
			</g>
			<rect x="13" y="3" class="st1" width="2" height="8"/>
		</g>
	</g>
</g>
<path d="M2,1C1.4,1,1,1.4,1,2v12c0,0.6,0.4,1,1,1s1-0.4,1-1V2C3,1.4,2.6,1,2,1z"/>
</svg>
