<?xml version="1.0" encoding="utf-8"?>
<!-- Generator: Adobe Illustrator 27.1.1, SVG Export Plug-In . SVG Version: 6.00 Build 0)  -->
<svg version="1.1" id="Calque_1" xmlns="http://www.w3.org/2000/svg" xmlns:xlink="http://www.w3.org/1999/xlink" x="0px" y="0px"
	 viewBox="0 0 800 800" style="enable-background:new 0 0 800 800;" xml:space="preserve">
<style type="text/css">
	.st0{fill:#FFFFFF;}
	.st1{fill:#609926;}
</style>
<path class="st0" d="M462.8,193.7l40.9-0.6l160.1,302.5L502.2,575l-201.7-80.3L462.8,193.7z"/>
<path class="st1" d="M139.6,180.7C78,180.6-4.3,219.7,0.3,317.7c7,153.1,163.9,167.3,226.7,168.6c6.8,28.6,80.6,127.7,135.3,133
	h239.3c143.5-9.5,250.9-434.1,171.4-435.7c-131.8,6.2-209.9,9.4-276.8,9.9v132.4l-21-9.1L475,193.5c-76.8,0-144.5-3.5-272.9-9.9
	C185.9,183.5,163.5,180.7,139.6,180.7L139.6,180.7z M148.2,234.9h7.4c8.7,78.5,22.9,124.4,51.7,194.5
	C133.9,420.7,71.5,399.5,60,319.9C54,278.8,74.1,235.8,148.2,234.9z M433.5,312c5,0.1,10.2,1,14.9,3.2l25,10.8l-17.9,32.5
	c-2.7,0-5.5,0.4-8.1,1.3c-11.6,3.8-17.7,15.1-13.5,25.5c0.9,2.1,2.2,4,3.8,5.7l-30.8,56.2c-2.5,0-5.1,0.4-7.4,1.3
	c-11.6,3.6-17.7,15.1-13.5,25.4c4.3,10.4,17,15.7,28.8,12c11.6-3.7,17.6-15.1,13.4-25.5c-1.2-2.7-2.9-5.2-5.2-7.3l30.1-54.7
	c3.2,0.2,6.5,0,9.8-1c2.6-0.8,5-2.1,7-3.8c11.6,5,21.1,8.8,28,12.3c10.2,5.1,13.8,8.5,15,12.2c1.1,3.6-0.1,10.7-6,23.1
	c-4.3,9.3-11.5,22.4-19.9,37.8c-2.9,0-5.7,0.4-8.3,1.3c-11.7,3.8-17.7,15.1-13.5,25.5c4.2,10.3,17,15.6,28.6,12
	c11.7-3.8,17.7-15.1,13.5-25.5c-1-2.5-2.6-4.8-4.5-6.8c8.3-15.2,15.5-28.4,20.2-38.1c6.2-13.4,9.5-23.5,6.7-33.1
	c-2.8-9.6-11.7-15.9-23.3-21.6c-7.7-3.8-17.3-7.8-28.6-12.6c0.1-2.7-0.2-5.3-1.3-7.9s-2.7-5-4.8-7l17.6-32l97.5,42.1
	c17.6,7.7,24.9,26.4,16.3,42l-67,122.7c-8.5,15.6-29.6,22.1-47.1,14.4l-137.9-59.5c-17.6-7.7-24.9-26.4-16.4-42l67-122.6
	c5.8-10.8,17.7-17.2,30.2-17.7h2.1L433.5,312z"/>
</svg>
