<?xml version="1.0" encoding="utf-8"?>
<!-- Generator: Adobe Illustrator 27.1.1, SVG Export Plug-In . SVG Version: 6.00 Build 0)  -->
<svg version="1.1" id="Calque_1" xmlns="http://www.w3.org/2000/svg" xmlns:xlink="http://www.w3.org/1999/xlink" x="0px" y="0px"
	 viewBox="0 0 64 64" style="enable-background:new 0 0 64 64;" xml:space="preserve">
<style type="text/css">
	.st0{fill:#FFFFFF;}
</style>
<circle class="st0" cx="32" cy="32" r="26"/>
<path d="M32,6C17.6,6,6,17.6,6,32c0,12.3,8.5,22.6,20,25.3c-0.6-0.1-1.2-0.3-1.8-0.5v-6c0,0-1,0.3-2.3,0.3c-3.6,0-5.1-3.2-5.5-4.9
	c-0.2-1-0.8-1.9-1.5-2.5c-0.8-0.7-1.1-0.7-1.1-0.9c0-0.5,0.7-0.5,1-0.5c1.6,0,2.9,1.7,3.4,2.6c1.4,2.2,2.9,2.6,3.7,2.6
	c1,0,1.8-0.1,2.4-0.4c0.3-1.9,1.1-3.6,2.5-4.8c-6.1-1.2-10.4-4.7-10.4-10.4c0-2.9,1.2-5.6,3.1-7.8c-0.2-0.6-0.5-1.7-0.5-3.6
	c0-1.2,0.1-2.8,0.6-4.2c0,0,3.7,0,7.2,3.3c1.6-0.5,3.3-0.7,5.1-0.7s3.5,0.3,5.1,0.7c3.5-3.3,7.2-3.3,7.2-3.3c0.6,1.5,0.7,3,0.7,4.2
	c0,2-0.3,3.2-0.4,3.7c1.9,2.2,3,4.8,3,7.7c0,5.7-4.3,9.2-10.4,10.4c1.6,1.4,2.6,3.5,2.6,5.8v8.6c-0.6,0.2-1.2,0.3-1.8,0.5
	c11.4-2.7,20-13,20-25.3C58,17.6,46.4,6,32,6z M33.8,57.9C33.2,58,32.6,58,32,58C32.6,58,33.2,58,33.8,57.9z M37.8,57.3
	c-1.2,0.3-2.4,0.5-3.6,0.6C35.4,57.8,36.6,57.6,37.8,57.3z M32,58c-0.6,0-1.2,0-1.8-0.1C30.8,58,31.4,58,32,58z M29.8,57.9
	c-1.2-0.1-2.4-0.3-3.6-0.6C27.4,57.6,28.6,57.8,29.8,57.9z"/>
</svg>
