<?xml version="1.0" encoding="utf-8"?>
<!-- Generator: Adobe Illustrator 27.1.1, SVG Export Plug-In . SVG Version: 6.00 Build 0)  -->
<svg version="1.1" id="Calque_1" xmlns="http://www.w3.org/2000/svg" xmlns:xlink="http://www.w3.org/1999/xlink" x="0px" y="0px"
	 viewBox="0 0 512 512" style="enable-background:new 0 0 512 512;" xml:space="preserve">
<style type="text/css">
	.st0{fill:#47315B;}
	.st1{fill:#FE6C35;}
</style>
<g>
	<path class="st0" d="M143.28,378.98c-71.01,0-124.61-52.74-124.61-122.45c-0.31-32.95,12.34-64.63,35.13-87.88
		c22.78-23.26,53.74-36.11,85.87-35.67c41.79,0,80.48,20.77,100.89,54.09l0.42,0.63l-45.58,26.94l-0.38-0.58
		c-10.12-16.82-31.54-27.2-55.4-27.2c-38.75,0-66.81,29.34-66.81,69.75c0,40.45,28.42,68.48,71.11,68.48
		c28.62,0,49.03-12.35,57.64-34.78h-60.78v-48.54h116.5v20.76c0,34.73-11.29,64.21-32.67,85.24
		C202.49,368.62,173.31,379.8,143.28,378.98z"/>
	<path class="st1" d="M333.61,432.83c-4.62,0-9.2-0.76-13.6-2.24c-10.1-3.99-18.13-11.99-22.25-22.1
		c-4.08-9.54-6.17-19.83-6.13-30.22c0.18-10.27,1.18-20.52,3.03-30.62c1.96-10.22,2.96-20.61,2.95-31.02v-8.12
		c-4.09-0.19-8.02-1.72-11.16-4.38c-4.96-3.45-7.88-9.15-7.81-15.21c-0.23-9.13,5.59-17.3,14.25-20.02c1.9-0.84,3.74-1.88,5.46-3.05
		c5.79-4.43,9.92-12.44,12.43-24.05l27.27-112.27c-4.44,3.97-9.44,7.25-14.86,9.75c-2.71,1.36-5.69,2.08-8.71,2.09
		c-2.49,0-4.95-0.48-7.25-1.42c-6.04-3.27-9.58-9.86-9.03-16.75c0-4.48,1.3-8.88,3.7-12.65c6.61-9.37,16.34-16.02,27.44-18.74
		c17.69-4.89,35.8-8.1,54.09-9.59c14.87-1.05,38.53-2.08,70.99-3.06c3.15,0,6.84,0,11.21,0.5c4.94,0.49,9.75,1.94,14.14,4.29
		c5.02,2.42,9.15,6.36,11.81,11.28c1.66,3.02,2.56,6.43,2.58,9.9c0,6.8-1.93,10.2-5.78,10.2c-1.35,0.01-2.71-0.09-4.05-0.29
		c-15.8-3.06-31.85-4.6-47.96-4.6c-14.61,0.01-29.16,1.27-43.55,3.78c-4.46,0.42-8.69,2.19-12.11,5.1c-2.39,2.86-4.04,6.26-4.82,9.9
		c-11.73,39.14-21.28,78.91-28.58,119.12l73.91-20.01c7.39-2.29,15.05-3.59,22.76-3.88c12.06,0,20.2,4.6,24.39,13.79
		c1.11,2.34,1.71,4.9,1.76,7.49c0,3.05-0.89,6.01-2.58,8.52c-1.25,2.35-3.64,3.87-6.28,3.99c-2.13-0.13-4.18-0.79-5.98-1.94
		c-3.71-1.86-7.81-2.81-11.96-2.77c-5.51,0.16-10.99,1.03-16.28,2.61c-24.84,6.27-49.33,13.72-73.47,22.41
		c-3.82,1.05-7.3,3.05-10.14,5.82c-2.49,3.49-4,7.6-4.36,11.89c-5.82,33.37-9.58,67.07-11.31,100.9
		c38.83-11.41,75.52-29.19,108.6-52.62c6.27-4.23,12.11-9.07,17.44-14.44c6.51-6.28,11.16-14.28,13.38-23.07
		c5.36,2.23,9.58,6.58,11.66,12.04c1.47,3.6,2.23,7.45,2.24,11.33c0,2.03-0.23,4.04-0.67,6.02c-4.46,15.11-13.59,28.39-26.06,37.92
		c-13.95,11.61-29.14,21.62-45.26,29.85c-16.43,8.44-30.78,15.31-42.9,20.12c-7.33,3.42-15.01,5.99-22.92,7.66
		c-3.19,0.65-6.42,0.94-9.69,0.86L333.61,432.83z"/>
</g>
</svg>
