<?xml version="1.0" encoding="utf-8"?>
<!-- Generator: Adobe Illustrator 27.1.1, SVG Export Plug-In . SVG Version: 6.00 Build 0)  -->
<svg version="1.1" id="Calque_1" xmlns="http://www.w3.org/2000/svg" xmlns:xlink="http://www.w3.org/1999/xlink" x="0px" y="0px"
	 viewBox="0 0 512 512" style="enable-background:new 0 0 512 512;" xml:space="preserve">
<style type="text/css">
	.st0{fill:#00A4F7;}
	.st1{fill:#B3E3FC;}
	.st2{fill:#FFFFFF;}
</style>
<g>
	<g>
		<path class="st0" d="M64.01,66.61c-0.99-20.29,14.96-30.93,31.63-30.86c116.58,0.45,233.16,0.24,349.74,0.24
			c19.86,0,31.62,11.85,31.62,31.91c0.01,115.94,0.01,231.88,0,347.82c0,17.48-6.75,27.03-22.25,32.59
			c-4.04,1.45-7.99,0.22-11.9,1.02c-2.76-0.14-5.52-0.42-8.27-0.42c-113.16-0.02-226.32-0.02-339.48-0.02
			c-19.17,0-30.85-11.61-30.85-30.66c0-114.65,0-229.3-0.01-343.95C64.23,71.72,64.09,69.16,64.01,66.61z M298.19,308.29
			c-1.9-0.03-3.95,0.41-5.68-0.15c-15.1-4.93-29.34-11.95-40.24-23.51c-24.16-25.63-29.41-56.04-19.59-89.29
			c9.17-31.08,32.21-47.96,61.26-58.23c16.23-5.74,32.87-9.41,50.19-10.5c14.29-0.9,28.46-3.49,42.87-1.21
			c5.61,0.89,8.69-2.21,8.75-7.79c0.07-5.54-0.21-11.1,0.08-16.62c0.26-5.01-2.53-7.42-6.75-7.26c-7.25,0.27-14.27-1.61-21.48-1.5
			c-12.71,0.2-25.42-0.18-38.11,1.24c-11.08,1.25-22.34,1.2-33.34,2.92c-25,3.9-49.68,9.18-73.23,18.91
			c-23.84,9.85-45.47,22.95-61.06,43.87c-23.17,31.1-26.51,65.99-16.06,102.32c9.11,31.65,31.44,52.37,59.79,67.32
			c12.73,6.71,26.43,10.97,39.98,15.61c-25.88,16.77-53.54,30.19-81.31,43.41c-7.97,3.79-16.03,7.38-23.86,11.43
			c-1.94,1-4.3,2.65-2.47,6.13c1.56,2.96,3.7,3.26,6.31,2.8c1.85-0.33,3.63-1.07,5.4-1.74c26.36-10.02,52.89-19.63,79-30.25
			c17.6-7.15,35.33-14.2,51.7-24.07c2.76-0.07,5.62-0.65,8.26-0.13c15.97,3.16,32.21,2.83,48.33,3.64c16,0.81,32-0.96,47.96-2.41
			c4.21-0.38,6.47-2.98,6.59-7.05c0.19-6.58,0-13.18,0.07-19.77c0.05-4.56-2.09-6.52-6.62-6.45c-8.29,0.12-16.66,0.73-24.84-0.19
			c-6.57-0.74-13.36,0.06-19.74-2.3c16.58-12.46,32.95-25.16,46.73-40.82c9.41-10.69,17.81-21.98,21.89-35.95
			c6.49-22.18-1.81-42.58-26.65-46.4c-15.98-2.45-31.88-1.93-47.61,0.84c-23.47,4.14-46.23,11.05-68.43,19.75
			c-3.37,1.32-6.79,2.68-6.28,6.69c0.56,4.32,4.26,4.96,8.19,5.17c7.68,0.42,15.18-1.82,22.88-1.12
			c10.31,0.94,20.69,1.19,30.97,2.37c22.59,2.61,27.42,11.81,17.45,32.25C329.93,279.88,314.55,294.49,298.19,308.29z"/>
		<path class="st1" d="M64.01,66.61c0.08,2.55,0.22,5.1,0.22,7.66c0.01,114.65,0.01,229.3,0.01,343.95
			c0,19.05,11.68,30.66,30.85,30.66c113.16,0,226.32,0,339.48,0.02c2.76,0,5.52,0.27,8.27,0.42c-0.56,17.82-12.35,29.27-30.19,29.27
			c-117.41,0.01-234.82,0.01-352.22,0c-18.42,0-30.79-12.38-30.79-30.82c0-116.34,0-232.69,0-349.03
			c0-21.56,10.38-32.03,31.81-32.09C62.31,66.65,63.16,66.63,64.01,66.61z"/>
		<path class="st2" d="M245.57,344.4c-13.55-4.63-27.25-8.89-39.98-15.61c-28.35-14.95-50.68-35.67-59.79-67.32
			c-10.46-36.33-7.12-71.22,16.06-102.32c15.59-20.92,37.22-34.02,61.06-43.87c23.55-9.73,48.24-15.01,73.23-18.91
			c10.99-1.72,22.25-1.67,33.34-2.92c12.69-1.43,25.4-1.04,38.11-1.24c7.21-0.11,14.23,1.76,21.48,1.5
			c4.21-0.15,7.01,2.25,6.75,7.26c-0.29,5.53-0.01,11.08-0.08,16.62c-0.07,5.59-3.15,8.68-8.75,7.79
			c-14.41-2.28-28.57,0.31-42.87,1.21c-17.32,1.09-33.96,4.77-50.19,10.5c-29.05,10.27-52.09,27.14-61.26,58.23
			c-9.81,33.26-4.57,63.66,19.59,89.29c10.9,11.56,25.15,18.58,40.24,23.51c1.73,0.56,3.78,0.13,5.68,0.15
			c1.11,1.79,2.96,2.35,4.82,2.76c12.35,2.69,24.48,6.7,37.34,6.4c6.38,2.36,13.17,1.57,19.74,2.3c8.19,0.92,16.56,0.31,24.84,0.19
			c4.53-0.06,6.67,1.9,6.62,6.45c-0.07,6.59,0.12,13.18-0.07,19.77c-0.12,4.07-2.38,6.67-6.59,7.05
			c-15.96,1.45-31.96,3.21-47.96,2.41c-16.12-0.81-32.36-0.48-48.33-3.64c-2.64-0.52-5.5,0.06-8.26,0.13
			C269.19,347.52,257.28,346.44,245.57,344.4z"/>
		<path class="st1" d="M340.35,317.45c-12.86,0.3-24.99-3.71-37.34-6.4c-1.87-0.41-3.72-0.96-4.82-2.76
			c16.36-13.79,31.75-28.41,41.32-48.05c9.97-20.45,5.14-29.65-17.45-32.25c-10.28-1.19-20.66-1.43-30.97-2.37
			c-7.7-0.7-15.2,1.54-22.88,1.12c-3.94-0.22-7.64-0.85-8.19-5.17c-0.52-4.01,2.91-5.37,6.28-6.69
			c22.21-8.7,44.96-15.61,68.43-19.75c15.73-2.78,31.63-3.3,47.61-0.84c24.84,3.82,33.14,24.22,26.65,46.4
			c-4.09,13.97-12.48,25.26-21.89,35.95C373.3,292.28,356.93,304.99,340.35,317.45z"/>
		<path class="st1" d="M245.57,344.4c11.7,2.04,23.62,3.12,34.77,7.7c-16.37,9.87-34.1,16.92-51.7,24.07
			c-26.12,10.62-52.64,20.23-79,30.25c-1.77,0.67-3.56,1.41-5.4,1.74c-2.61,0.46-4.75,0.17-6.31-2.8c-1.83-3.47,0.54-5.13,2.47-6.13
			c7.83-4.05,15.9-7.64,23.86-11.43C192.03,374.59,219.69,361.17,245.57,344.4z"/>
	</g>
</g>
</svg>
