<?xml version="1.0" encoding="UTF-8" standalone="no"?><!DOCTYPE svg PUBLIC "-//W3C//DTD SVG 1.1//EN" "http://www.w3.org/Graphics/SVG/1.1/DTD/svg11.dtd"><svg width="100%" height="100%" viewBox="0 0 255 96" version="1.1" xmlns="http://www.w3.org/2000/svg" xmlns:xlink="http://www.w3.org/1999/xlink" xml:space="preserve" xmlns:serif="http://www.serif.com/" style="fill-rule:evenodd;clip-rule:evenodd;stroke-linejoin:round;stroke-miterlimit:1.41421;"><g id="surface49030"><g id="g4824"><path id="use4826" d="M53.914,43.168c0,0.329 0.172,0.563 0.656,0.907c2.391,1.718 3.297,2.375 3.391,2.953c0.156,1 0.078,12.687 0.078,12.859c0,2.391 -0.078,7.328 -0.328,8.485c-0.172,0.828 -1.407,1.812 -3.297,2.312c-1.406,0.406 -1.985,0.813 -1.985,1.313c0,0.578 0.829,0.906 2.141,0.906c1.406,0 4.297,-0.328 7.016,-0.328c1.718,0 5.843,0.25 6.422,0.25c0.906,0 1.89,-0.328 1.89,-0.828c0,-0.579 -0.484,-0.985 -1.812,-1.407c-2.063,-0.656 -3.875,-0.812 -3.953,-3.453c-0.079,-2.89 -0.157,-6.344 -0.157,-10.953c0,-4.703 0.485,-15.406 0.485,-16.312c0,-0.094 -0.407,-0.907 -0.735,-0.907c-1.234,0.328 -5.109,2.141 -8.156,2.797c-0.906,0.156 -1.656,0.828 -1.656,1.406Zm7.5,-20.609c-1.156,0 -2.391,0.328 -3.219,1.078c-0.656,0.906 -0.984,2.219 -0.984,2.969c0,1.391 0.578,2.297 1.234,3.047c0.75,0.656 2.063,0.984 2.641,0.984c1.64,0 3.953,-1.812 3.953,-4.031c0,-1.484 -1.406,-4.047 -3.625,-4.047Z" style="fill:#6f8090;fill-rule:nonzero;"/><path id="use4828" d="M74.922,43.247c0,0.25 0.5,0.656 1.578,1.39c1.812,1.485 1.969,2.313 1.969,3.219c0,8.406 -0.157,15.578 -0.407,18.047c-0.25,2.969 -0.75,3.781 -3.468,4.609c-0.907,0.25 -1.719,0.656 -1.719,1.235c0,0.75 0.906,1.078 2.141,1.078c1.39,0 3.781,-0.25 6.828,-0.25c1.734,0 4.047,0.078 5.031,0.078c1.156,0 2.062,-0.406 2.062,-0.985c0,-0.5 -0.656,-0.984 -1.484,-1.234c-2.641,-0.75 -2.969,-1.406 -3.047,-2.562c-0.078,-0.985 -0.078,-18.704 -0.078,-19.766c0,-0.75 0.578,-1.734 0.813,-1.984c1.578,-1.391 3.718,-2.625 7.343,-2.625c1.891,0 4.36,0.906 5.266,1.562c0.984,0.734 2.469,3.125 2.469,6.094c0,2.39 -0.078,12.359 -0.25,15.078c-0.157,2.719 -0.563,3.375 -2.547,4.125c-0.985,0.328 -1.891,0.812 -1.891,1.391c0,0.656 1.156,1 1.891,1c1.078,0 3.625,-0.172 5.687,-0.172c2.297,0 4.203,0.172 6.094,0.172c1.313,0 2.469,-0.344 2.469,-0.907c0,-0.578 -0.485,-1 -2.063,-1.406c-2.047,-0.578 -2.875,-1.656 -3.047,-2.891c-0.078,-1.14 -0.25,-13.421 -0.25,-14.984c0,-4.125 -1.062,-7.922 -2.875,-10.062c-1.156,-1.313 -3.468,-3.125 -7.5,-3.125c-3.453,0 -7.75,2.312 -11.031,4.531c-0.094,0 -0.5,0.172 -0.5,-0.25c0,-0.735 0.328,-2.719 0.328,-4.11c0,-0.343 -0.406,-1.25 -0.828,-1.25c-0.406,0 -1.156,0.422 -1.969,0.907c-1.156,0.828 -4.125,1.906 -5.531,2.39c-0.578,0.25 -1.484,1.078 -1.484,1.657Z" style="fill:#6f8090;fill-rule:nonzero;"/><path id="use4830" d="M129.887,38.965c-3.219,0 -6.094,0.907 -8.406,2.625c-3.219,2.391 -5.032,5.36 -5.032,9.391c0,6.016 3.969,9.156 6.266,10.469c0.25,0.25 0.5,0.578 0.328,0.75c-1.312,1.312 -4.859,3.297 -6.094,4.281c-0.156,0.156 -0.406,0.578 -0.406,0.734c0,2.641 1.156,4.953 2.797,6.094c1.078,0.828 2.641,1.328 3.219,1.656c0.234,0.157 0.406,0.407 0.234,0.578c-1.062,0.907 -3.625,2.719 -5.672,4.454c-0.75,0.562 -2.39,1.562 -2.39,5.187c0,2.297 1.484,5.359 3.781,7.172c3.469,2.547 7.344,3.047 10.297,3.047c2.969,0 7.344,-0.578 11.875,-3.547c3.531,-2.313 7.734,-6.516 7.734,-12.688c0,-2.14 -1.14,-5.281 -3.453,-7.25c-1.484,-1.156 -3.297,-1.89 -3.953,-1.984c-2.641,-0.406 -11.531,-0.484 -15.156,-0.656c-0.907,-0.078 -3.391,-1.563 -3.391,-3.703c0,-0.657 1.813,-2.391 2.641,-2.797c0.328,-0.172 0.75,-0.172 1.234,-0.094c0.578,0 2.391,0.094 2.891,0.094c1.968,0 5.359,-0.344 8.984,-3.141c3.203,-2.469 4.609,-5.844 4.609,-10.375c0,-1.406 -0.25,-2.89 -0.656,-4.125c-0.094,-0.25 0.156,-0.656 0.485,-0.656c2.062,0.156 5.031,0.156 5.531,0.156c0.328,0 1.469,-1.469 1.469,-2.625c0,-0.328 -0.235,-0.828 -0.735,-0.906c-1.734,-0.422 -7.75,-0.5 -9.562,-0.656c-0.578,-0.094 -1.391,-0.344 -2.297,-0.5c-2.391,-0.578 -3.875,-0.985 -7.172,-0.985Zm-0.656,1.969c2.39,0 4.359,1.328 5.922,3.625c1.328,1.984 1.812,4.703 1.812,6.188c0,3.375 -1.062,7.406 -3.125,8.734c-1.156,0.734 -2.141,1.141 -2.719,1.141c-5.359,0 -8.156,-6.172 -8.156,-10.297c0,-3.875 0.906,-6.016 2.141,-7.328c0.75,-0.985 2.64,-2.063 4.125,-2.063Zm2.64,51c-3.062,0 -5.859,-0.828 -8.078,-2.547c-1.734,-1.484 -2.89,-3.625 -2.89,-6.265c0,-1.891 1.078,-4.938 3.703,-6.75c0.5,-0.344 1.812,-0.829 4.453,-0.829c3.469,0 6.094,0 8.328,0.407c1.969,0.422 3.547,1.484 4.359,2.562c1,1.313 1.157,3.203 1.157,4.281c0,2.391 -1.235,5.516 -4.532,7.657c-0.906,0.5 -3.297,1.484 -6.5,1.484Z" style="fill:#6f8090;fill-rule:nonzero;"/></g><path id="use4834" d="M170.258,69.45c-1.969,0 -3.453,0 -5.594,-1.657c-1.156,-0.828 -2.063,-2.718 -2.063,-4.609c0,-3.703 0.329,-19.281 0.25,-22.078c0,-0.5 -0.343,-1.234 -0.671,-1.234c-0.329,0 -6.422,0.906 -8.735,0.906c-0.984,0 -1.39,0.484 -1.39,0.734c0,0.75 0.734,1.156 1.484,1.485c1.391,0.578 2.969,0.906 3.047,3.218c0.156,4.36 0.156,13.672 0.156,19.61c0,1.312 0.578,2.953 1.156,3.859c1.657,2.563 4.282,3.875 7.25,3.875c2.313,0 4.125,-0.406 5.532,-0.984c1.062,-0.407 4.359,-2.547 6.75,-4.203c0.156,-0.079 0.406,0.171 0.406,0.578c-0.078,1.406 -0.328,2.968 -0.328,3.453c0,0.578 0.5,1.156 0.828,1.156c0.156,0 1.484,-0.328 2.875,-0.734c1.906,-0.5 5.359,-1.407 7.5,-1.563c0.328,0 0.906,-0.578 0.906,-0.828c-0.078,-0.25 -0.656,-1.562 -0.984,-1.562c-0.985,0 -3.547,0.406 -4.125,0.406c-0.657,0 -0.985,-0.985 -0.985,-1.156c0,-6.75 0.657,-25.047 0.828,-27.344c0,-0.328 -0.171,-1.235 -0.578,-1.235c-0.578,0 -1.156,0.079 -1.984,0.329c-1.891,0.484 -5.516,0.906 -8.813,0.906c-0.828,0 -1.89,0.406 -1.89,0.734c0,0.656 1.062,1.156 1.64,1.313c0.75,0.172 2.563,0.672 3.797,1c0.5,0.156 1.407,1.312 1.407,1.812l-0.172,18.953c0,0.328 -0.735,1.563 -1.235,1.969c-2.062,1.813 -4.281,2.891 -6.265,2.891Z" style="fill:#6f8090;fill-rule:nonzero;"/><path id="use4838" d="M209.9,39.372c-1.406,0 -4.125,0.5 -6.266,1.484c-6.437,2.969 -9.89,9.562 -9.89,16.141c0,9.64 5.937,16.406 14.828,16.406c4.703,0 9.062,-1.985 11.953,-6.188c0.25,-0.406 0.578,-1.312 0.578,-1.968c0,-0.422 -0.172,-1 -0.672,-1c-0.328,0 -0.734,0.5 -1.062,1c-1.406,2.062 -3.875,2.968 -7.5,2.968c-3.953,0 -7.422,-2.062 -9.235,-4.531c-1.812,-2.391 -3.125,-6.187 -3.125,-9.406c0,-0.813 0.172,-2.219 0.407,-2.875c0.093,-0.25 0.422,-0.656 0.672,-0.656c3.781,0.078 17.875,0.078 18.781,0.078c0.906,0 1.562,-0.907 1.562,-1.407c0,-2.875 -1.062,-5.187 -2.875,-6.921c-2.062,-2.047 -5.281,-3.125 -8.156,-3.125l0,0Zm-0.828,2.14c2.969,0 5.437,2.641 5.437,4.938c0,1.656 -0.828,2.062 -2.796,2.062c-4.125,0.094 -8.5,0.094 -10.641,0c-0.156,0 -0.484,-0.484 -0.328,-0.906c1.484,-3.781 4.625,-6.094 8.328,-6.094Z" style="fill:#6f8090;fill-rule:nonzero;"/><path id="use4842" d="M243.27,39.372c-1.406,0 -4.125,0.5 -6.265,1.484c-6.438,2.969 -9.891,9.562 -9.891,16.141c0,9.64 5.938,16.406 14.828,16.406c4.703,0 9.063,-1.985 11.953,-6.188c0.25,-0.406 0.579,-1.312 0.579,-1.968c0,-0.422 -0.172,-1 -0.672,-1c-0.328,0 -0.735,0.5 -1.063,1c-1.406,2.062 -3.875,2.968 -7.5,2.968c-3.953,0 -7.422,-2.062 -9.234,-4.531c-1.813,-2.391 -3.125,-6.187 -3.125,-9.406c0,-0.813 0.172,-2.219 0.406,-2.875c0.094,-0.25 0.422,-0.656 0.672,-0.656c3.781,0.078 17.875,0.078 18.781,0.078c0.906,0 1.563,-0.907 1.563,-1.407c0,-2.875 -1.063,-5.187 -2.875,-6.921c-2.063,-2.047 -5.282,-3.125 -8.157,-3.125l0,0Zm-0.828,2.14c2.969,0 5.438,2.641 5.438,4.938c0,1.656 -0.828,2.062 -2.797,2.062c-4.125,0.094 -8.5,0.094 -10.641,0c-0.156,0 -0.484,-0.484 -0.328,-0.906c1.485,-3.781 4.625,-6.094 8.328,-6.094Z" style="fill:#6f8090;fill-rule:nonzero;"/><path id="path4844" d="M16.025,26.313c16.035,4.266 35.968,0.879 45.019,-14.585c1.785,-3.055 3.446,-8.332 -0.25,-10.641c-5.226,-3.266 -13.195,1.527 -16.746,5.152c-5.07,5.176 -6.855,12.93 -8.281,19.789c-1.953,9.379 -2.867,18.957 -4.281,28.43c-1.274,8.508 -2.465,19.23 -9.739,24.918c-3.218,2.516 -12.148,4.277 -13.89,-0.949c-0.344,-1.024 0.32,-2.215 0.82,-3.043c0.414,-0.696 2.055,-1.813 0.672,-1.106c1.625,-0.828 4.738,-0.097 6.473,0.25c7.234,1.45 14.14,4.692 21.082,7.098c20.91,7.242 41.968,8.305 63.269,1.883c2.309,-0.696 8.106,-6.203 2.57,-4.535c-21.644,6.519 -42.644,3.406 -63.476,-4.157c-11.828,-4.293 -23.492,-9.882 -34.516,-0.816c-3.008,2.473 -7.355,8.395 -2.726,11.445c5.031,3.321 12.308,0.973 17.261,-1.246c18.043,-8.082 19.325,-27.801 21.633,-44.957c1.172,-8.691 2.289,-17.508 4.973,-25.89c0.801,-2.497 2.133,-6.446 4.183,-8.094c-1.285,1.031 0.754,0.215 2.223,0.492c0.922,0.18 1.609,0.449 2.188,1.184c2.812,3.593 -1.954,9.628 -4.434,11.867c-6.902,6.226 -18.934,4.511 -26.992,2.367c-2.473,-0.656 -8.488,4.758 -7.035,5.144" style="fill:#3f556b;fill-rule:nonzero;"/></g></svg>