<?xml version="1.0" encoding="utf-8"?>
<!-- Generator: Adobe Illustrator 26.5.0, SVG Export Plug-In . SVG Version: 6.00 Build 0)  -->
<svg version="1.1" id="Layer_1" xmlns="http://www.w3.org/2000/svg" xmlns:xlink="http://www.w3.org/1999/xlink" x="0px" y="0px"
	 viewBox="0 0 512 512" style="enable-background:new 0 0 512 512;" xml:space="preserve">
<g id="XMLID_1_">
	<path id="XMLID_2_" d="M476.87,413.97H36.71c-19.92,0-36.76-16.84-36.76-36.76V134.89c0-19.92,16.84-36.76,36.76-36.76h438.48
		c19.92,0,36.76,16.84,36.76,36.76v242.32C512.09,396.99,496.8,413.97,476.87,413.97z M36.71,122.54c-6.17,0-12.21,6.17-12.21,12.21
		v242.32c0,7.72,6.17,12.21,12.21,12.21h438.48c7.72,0,12.21-6.17,12.21-12.21V134.89c0-7.72-6.17-12.21-12.21-12.21
		C476.87,122.54,36.71,122.54,36.71,122.54z M73.61,340.31V171.65h49.11l49.11,61.32l49.11-61.32h49.11v168.66h-49.11v-96.53
		l-49.11,61.32l-49.11-61.32v96.53L73.61,340.31L73.61,340.31z M381.74,340.31l-73.66-81.24h49.11v-87.41h49.11v85.87h49.11
		L381.74,340.31z"/>
</g>
</svg>
