<?xml version="1.0" encoding="UTF-8" standalone="no"?>
<svg
   viewBox="0 0 344.72 235.305"
   version="1.1"
   id="svg6"
   sodipodi:docname="moodle.svg"
   width="344.72"
   height="235.30499"
   inkscape:version="1.1.2 (0a00cf5339, 2022-02-04)"
   xmlns:inkscape="http://www.inkscape.org/namespaces/inkscape"
   xmlns:sodipodi="http://sodipodi.sourceforge.net/DTD/sodipodi-0.dtd"
   xmlns="http://www.w3.org/2000/svg"
   xmlns:svg="http://www.w3.org/2000/svg">
  <defs
     id="defs10" />
  <sodipodi:namedview
     id="namedview8"
     pagecolor="#ffffff"
     bordercolor="#666666"
     borderopacity="1.0"
     inkscape:pageshadow="2"
     inkscape:pageopacity="0.0"
     inkscape:pagecheckerboard="0"
     showgrid="false"
     width="344.72001px"
     height="312.17999px"
     inkscape:zoom="0.50383358"
     inkscape:cx="128.01846"
     inkscape:cy="112.1402"
     inkscape:window-width="1440"
     inkscape:window-height="840"
     inkscape:window-x="0"
     inkscape:window-y="32"
     inkscape:window-maximized="1"
     inkscape:current-layer="svg6" />
  <path
     fill="#f98012"
     d="M 289.61,235.31 V 127.05 c 0,-22.62667 -9.33333,-33.94333 -28,-33.95 -18.66667,-0.007 -28.02,11.31 -28.06,33.95 V 235.31 H 178.4 V 127.05 c 0,-22.62667 -9.19,-33.94333 -27.57,-33.95 -18.7,0 -28.03333,11.31667 -28,33.95 V 235.31 H 67.67 V 120.66 c 0,-23.62 8.2,-41.49667 24.6,-53.63 14.44,-10.83333 33.96,-16.25 58.56,-16.25 24.94,0 43.31333,6.39667 55.12,19.19 10.17333,-12.79333 28.71333,-19.19 55.62,-19.19 24.6,0 44.11333,5.41667 58.54,16.25 16.4,12.12667 24.60333,30.00333 24.61,53.63 v 114.65 z"
     id="path2"
     sodipodi:nodetypes="csscccsccccscscscccc" />
  <path
     fill="#333333"
     d="M 174.74,42.44 229.48,2.44 228.78,0 C 130,12.11 85.08,20.69 0,70.01 l 0.79,2.24 6.76,0.07 c -0.62,6.81 -1.7,23.64 -0.32,48.95 -9.44,27.32 -0.24,45.88 8.4,66.07 1.37,-21 1.23,-44 -5.22,-66.89 -1.35,-25.14 -0.24,-41.67 0.37,-48.1 l 56.4,0.54 a 258,258 0 0 0 1.67,33.06 c 50.4,17.71 101.09,-0.06 128,-43.72 -7.47,-8.37 -22.11,-19.79 -22.11,-19.79 z"
     id="path4" />
</svg>
