<?xml version="1.0" encoding="UTF-8"?>
<svg width="512px" height="512px" viewBox="0 0 512 512" version="1.1" xmlns="http://www.w3.org/2000/svg" xmlns:xlink="http://www.w3.org/1999/xlink">
    <!-- Generator: Sketch 48.2 (47327) - http://www.bohemiancoding.com/sketch -->
    <title>logomark_RGB_512x512</title>
    <desc>Created with Sketch.</desc>
    <defs/>
    <g id="Logo" stroke="none" stroke-width="1" fill="none" fill-rule="evenodd">
        <g id="logomark_RGB_512x512">
            <g id="Page-1" transform="translate(19.000000, 70.000000)">
                <path d="M51.7116058,195.525977 L51.814693,190.357009 C51.8119069,190.357009 51.8119069,190.359797 51.8119069,190.362585 C52.3412737,198.905044 55.0438303,204.829563 61.1482648,210.823782 L74.5635329,220.97771 C85.8864092,227.161513 92.7208127,238.057052 101.937367,247.366214 L111.468754,257.890947 C111.468754,257.890947 111.47154,257.890947 111.47154,257.893735 L119.938622,271.011317 C123.371148,277.585441 120.401122,272.299377 122.710833,279.344675 L131.776935,296.543902 L131.776935,296.54669 C133.54892,301.955427 135.15931,310.076896 135.139807,314.880636 C135.103587,324.833827 134.989355,328.371811 134.48785,338.497859 L134.48785,338.500647 L131.228065,347.043106 C131.228065,347.043106 131.228065,347.045894 131.225279,347.045894 C131.225279,347.045894 115.093524,369.255172 115.099096,369.255172 L158.309354,361.833493 C162.678023,360.938542 187.106905,348.490082 190.882126,346.117487 L208.147841,337.087126 L214.937666,333.529627 C222.627415,329.445194 222.318153,328.611579 231.657297,325.54477 C241.832284,322.204735 253.077148,313.745916 259.911551,308.02771 L268.010863,299.131174 L268.010863,299.128386 L312.664342,273.230572 L317.551233,270.091274 C330.554152,261.741187 335.020336,246.393198 333.23442,231.036846 C332.833215,227.576927 341.383882,225.681081 349.187862,224.209012 C355.665639,222.985076 361.903809,220.729577 367.690623,217.565187 L388.425083,206.231931 C401.344418,199.574166 415.071734,189.247381 422.886859,176.988506 C429.094381,167.247203 427.665091,135.238074 427.662305,135.182314 L427.662305,135.179526 C437.090605,121.574042 448.048497,118.016543 461.734021,100.240199 C474.302302,83.9108309 474.154637,65.6103408 474.154637,65.6103408 C475.999062,10.4133417 377.325098,-1.15131898 331.874783,0.0865569486 L251.72587,7.81212946 C238.678372,10.1094487 221.175836,11.3612647 198.86442,16.7058777 C196.785959,17.2049313 124.017533,40.1976402 124.017533,40.1976402 C118.456396,41.9011136 108.950083,45.8684502 103.66756,48.3023819 C62.636064,67.2106579 27.4498915,83.2556488 4.60075059,123.023807 C4.60075059,123.023807 -6.11474704,144.711728 5.16076489,164.679447 L16.539364,175.650262 C16.539364,175.65305 23.2623218,181.346164 23.2623218,181.346164 C32.6961947,190.078208 40.7425694,191.678525 51.7116058,195.525977" id="Fill-1" fill="#D68E44"/>
                <path d="M51.7116058,195.525977 L51.814693,190.357009 C52.3412737,198.905044 55.0438303,204.829563 61.1482648,210.823782 L74.5635329,220.97771 C85.8864092,227.161513 92.7208127,238.057052 101.937367,247.366214 L111.468754,257.890947 C111.468754,257.890947 114.292044,262.264403 119.938622,271.011317 C123.371148,277.585441 120.401122,272.299377 122.710833,279.344675 L131.776935,296.543902 C133.54892,301.955427 135.15931,310.076896 135.139807,314.880636 C135.103587,324.833827 134.989355,328.371811 134.48785,338.497859 L131.228065,347.043106 C131.225279,347.045894 109.356187,373.923779 112.996118,371.27296 L158.309354,361.833493 C162.678023,360.938542 187.106905,348.490082 190.882126,346.117487 L208.147841,337.087126 L214.937666,333.529627 C222.627415,329.445194 222.318153,328.611579 231.657297,325.54477 C241.832284,322.204735 253.077148,313.745916 259.911551,308.02771 L268.010863,299.131174 L312.664342,273.230572 L317.551233,270.091274 C330.554152,261.741187 335.020336,246.393198 333.23442,231.036846 C332.833215,227.576927 341.383882,225.681081 349.187862,224.209012 C355.665639,222.985076 361.903809,220.729577 367.690623,217.565187 L388.425083,206.231931 C401.344418,199.574166 415.071734,189.247381 422.886859,176.988506 C429.094381,167.247203 427.665091,135.238074 427.662305,135.182314 C437.090605,121.574042 448.048497,118.016543 461.734021,100.240199 C474.302302,83.9108309 474.154637,65.6103408 474.154637,65.6103408 C475.999062,10.4133417 377.325098,-1.15131898 331.874783,0.0865569486 L251.72587,7.81212946 C238.678372,10.1094487 221.175836,11.3612647 198.86442,16.7058777 C196.785959,17.2049313 124.017533,40.1976402 124.017533,40.1976402 C118.456396,41.9011136 108.950083,45.8684502 103.66756,48.3023819 C62.636064,67.2106579 27.4498915,83.2556488 4.60075059,123.023807 C4.60075059,123.023807 -6.11474704,144.711728 5.16076489,164.679447 L16.539364,175.650262 C16.539364,175.65305 23.2623218,181.346164 23.2623218,181.346164 C32.6961947,190.078208 40.7425694,191.678525 51.7116058,195.525977 Z" id="Stroke-3" stroke="#2A2B2A" stroke-width="21.8571429" stroke-linecap="square"/>
                <path d="M248.019713,151.534129 C71.0053046,187.819446 38.9814651,151.422602 36.6862981,139.781968 C34.388349,128.135759 64.9404996,84.4450471 220.040932,54.7119424 C375.133018,24.9872022 420.491083,51.6784073 422.791814,63.3218287 C425.089763,74.9568855 425.034122,115.254388 248.019713,151.534129 M461.002867,59.2427278 C457.05518,39.257085 399.798413,-10.6150121 216.260166,24.0392225 C32.7274827,58.6934572 0.403184997,129.697137 4.33974419,149.677204 C8.28464945,169.65727 50.4656463,234.635703 259.709764,191.092764 C468.956664,147.552614 464.928298,79.220006 461.002867,59.2427278" id="Fill-5" fill="#965A28"/>
                <path d="M96.8538157,238.098964 C96.8538157,238.098964 126.788981,271.196546 208.67991,271.196546 C290.568046,271.196546 319.039826,239.102938 319.039826,239.102938 C319.039826,239.102938 343.076767,292.579235 214.907675,292.579235 C114.33345,292.579235 96.8538157,238.098964 96.8538157,238.098964" id="Fill-7" fill="#965A28"/>
                <path d="M125.102845,278.45472 C125.102845,278.45472 153.151978,311.239478 209.906886,311.239478 C248.92971,311.239478 254.241266,305.058222 254.241266,305.058222 C254.241266,305.058222 247.143425,328.899416 197.483577,328.899416 C147.834858,328.899416 125.102845,289.930632 125.102845,278.45472" id="Fill-9" fill="#965A28"/>
                <path d="M372.606572,165.956544 C354.67743,201.877461 226.950423,224.535098 160.014588,223.965322 C96.0158071,223.415002 56.4980591,199.890192 56.4980591,199.890192 C56.4980591,199.890192 73.5904335,247.145486 193.585707,248.171084 C313.589348,249.196681 415.320772,203.117071 415.663847,165.028226 C415.697318,159.294331 413.842483,154.088522 410.581878,149.316299 C399.648114,154.9279 387.049182,160.49781 372.606572,165.956544" id="Fill-11" fill="#965A28"/>
                <path d="M264.681099,111.139638 C191.631026,110.490328 112.996118,139.22736 112.996118,139.22736 C171.094602,120.558966 261.502943,115.806015 319.059156,126.186323 C331.380451,122.35972 342.007847,118.550433 351.095082,114.80752 C326.164585,109.379285 292.616449,111.396476 264.681099,111.139638" id="Fill-13" fill="#965A28"/>
                <path d="M121.06727,133.173997 C141.696302,127.282988 169.022157,121.386632 201.778783,119.049482" id="Stroke-15" stroke="#965A28" stroke-width="1.45714286"/>
                <path d="M92.81824,144.491271 C107.451354,145.09072 126.344803,148.017716 139.22736,153.351875 L124.231561,134.637829 L125.058482,110.97833 C117.848312,122.611386 104.312924,135.705598 92.81824,144.491271" id="Fill-17" fill="#965A28"/>
                <path d="M157.38745,364.845676 C154.073236,364.815208 147.986238,364.311107 141.303119,360.948589 C133.88442,357.21769 129.53383,351.883085 127.540379,349.077294 L117.031694,369.255172" id="Fill-19" fill="#965A28"/>
                <path d="M254.117532,147.498553 C77.070581,183.78387 45.0408542,147.387026 42.7480478,135.746393 C40.4468938,124.100183 71.0074436,80.4094714 226.13639,50.6763668 C381.254205,20.9516266 426.623391,47.6428317 428.921762,59.286253 C431.220134,70.9213098 431.167266,111.218812 254.117532,147.498553 M467.142623,55.2071521 C463.191427,35.2215093 405.924135,-14.6505878 222.354928,20.0036469 C38.7885046,54.6578815 6.45826441,125.661562 10.3927648,145.641628 C14.3383953,165.621694 56.5299292,230.600127 265.809732,187.057188 C475.047797,144.685284 470.790523,82.1437167 467.142623,55.2071521" id="Fill-21" fill="#FEFEFE"/>
                <path d="M96.8538157,237.569483 C96.8538157,237.569483 131.452317,265.546913 213.075717,265.546913 C294.699117,265.546913 323.081635,234.063388 323.081635,234.063388 C323.081635,234.063388 347.038084,286.525871 219.286133,286.525871 C119.037053,286.525871 96.8538157,237.569483 96.8538157,237.569483" id="Fill-23" fill="#FEFEFE"/>
                <path d="M125.102845,278.45472 C125.102845,278.45472 157.733546,307.011578 214.180702,307.011578 C252.993829,307.011578 258.276842,300.763015 258.276842,300.763015 C258.229796,300.777019 251.11198,324.891824 201.824152,324.863816 C152.442231,324.835808 125.102845,290.055594 125.102845,278.45472" id="Fill-25" fill="#FEFEFE"/>
                <path d="M139.439688,316.792689 L129.138421,349.626577 L132.545183,352.952922 C136.016171,356.339846 140.062399,359.104457 144.499568,361.122843 L153.432545,363.201809 L161.134062,360.789658 L183.618692,349.106147 L167.59574,351.755107 C161.209457,351.028157 155.970862,350.414105 150.709928,347.635726 C145.004997,344.626045 139.439688,316.792689 139.439688,316.792689" id="Fill-27" fill="#D68E44"/>
                <path d="M376.728591,161.921421 C358.835476,197.843314 231.365124,220.501568 164.566573,219.931777 C100.696392,219.381441 56.4980591,200.405987 56.4980591,200.405987 C56.4980591,200.405987 78.3132961,243.112571 198.067451,244.135417 C317.83274,245.163822 419.356962,199.082959 419.699347,160.990298 C419.735534,155.259027 417.884426,150.053077 414.62759,145.280724 C403.715796,150.892477 391.144964,156.462538 376.728591,161.921421" id="Fill-29" fill="#FEFEFE"/>
                <path d="M267.885937,104.935086 C195.2346,104.328927 117.031694,131.156209 117.031694,131.156209 C174.810273,113.728443 259.974185,113.701503 317.216233,123.391976 C329.470273,119.816981 340.039661,116.263538 349.077294,112.76667 C324.282878,107.699175 295.668804,105.172162 267.885937,104.935086" id="Fill-31" fill="#FEFEFE"/>
                <path d="M127.120633,129.138421 C147.746125,123.248972 175.073845,117.351499 207.832146,115.013906" id="Stroke-33" stroke="#FEFEFE" stroke-width="1.45714286"/>
                <path d="M102.907179,138.437907 C117.540293,139.037356 136.428907,141.964353 149.316299,147.298511 L134.315665,128.584466 L135.147421,104.924967 C127.937252,116.558022 114.401863,129.652234 102.907179,138.437907" id="Fill-35" fill="#FEFEFE"/>
                <path d="M161.423026,358.792312 C158.108812,358.761845 152.021814,358.257744 145.338695,354.895226 C137.919995,351.164326 133.569405,345.829722 131.575955,343.023931 L121.06727,363.201809" id="Fill-37" fill="#FEFEFE"/>
                <path d="M136.702528,314.774901 C136.702528,314.774901 155.168808,343.993144 201.778783,339.564285 C201.778783,339.564285 175.500481,362.664369 150.447379,348.538698 C128.46831,336.144006 136.702528,314.774901 136.702528,314.774901" id="Fill-39" fill="#965A28"/>
                <path d="M137.420207,314.774901 C137.420207,314.774901 156.255411,343.807322 203.79657,339.40663 C203.79657,339.40663 181.803401,357.840396 156.252597,343.807322 C133.834425,331.491458 137.420207,314.774901 137.420207,314.774901" id="Fill-41" fill="#FEFEFE"/>
            </g>
        </g>
    </g>
</svg>