<?xml version="1.0" encoding="iso-8859-1"?>
<!-- Generator: Adobe Illustrator 19.0.0, SVG Export Plug-In . SVG Version: 6.00 Build 0)  -->
<svg version="1.1" id="Capa_1" xmlns="http://www.w3.org/2000/svg" xmlns:xlink="http://www.w3.org/1999/xlink" x="0px" y="0px"
	 viewBox="0 0 512.037 512.037" style="enable-background:new 0 0 512.037 512.037;" xml:space="preserve">
<g>
	<path style="fill:#4CAF50;" d="M512.037,96.019v320c0,5.891-4.776,10.667-10.667,10.667H202.704
		c-5.891,0-10.667-4.776-10.667-10.667v-32.853c3.524,0.594,7.093,0.879,10.667,0.853c45.867,0,191.147-37.333,242.133-88.533
		c4.082-4.165,4.015-10.851-0.15-14.933c-4.106-4.024-10.677-4.024-14.783,0c-44.16,44.16-179.413,82.133-227.2,82.133
		c-3.592-0.03-7.17-0.459-10.667-1.28v-43.52c7.026,1.397,14.17,2.111,21.333,2.133c76.8,0,158.507-79.36,167.467-88.533
		c2.075-1.924,3.237-4.637,3.2-7.467c-0.058-2.872-1.201-5.616-3.2-7.68c-34.987-34.133-114.56-88.32-178.133-88.32
		c-3.565,0.007-7.126,0.221-10.667,0.64v-32.64c0-5.891,4.776-10.667,10.667-10.667H501.37
		C507.262,85.352,512.037,90.128,512.037,96.019z"/>
	<path style="fill:#4CAF50;" d="M213.37,298.685c-7.201,0.003-14.372-0.93-21.333-2.773v-82.56
		c25.036,2.614,48.655,12.895,67.627,29.44c4.477,3.888,11.259,3.411,15.147-1.067c3.888-4.477,3.411-11.259-1.067-15.147
		c-22.958-19.77-51.53-31.855-81.707-34.56v-42.027c3.54-0.419,7.102-0.633,10.667-0.64c50.347,0,117.76,41.6,155.093,74.88
		C324.73,254.952,264.357,298.685,213.37,298.685z"/>
	<path style="fill:#4CAF50;" d="M192.037,213.352c-22.619,1.937-44.152,10.55-61.867,24.747
		c11.109,27.437,33.741,48.586,61.867,57.813v21.973c-61.653-13.013-84.48-78.933-84.693-79.787
		c-1.438-4.09-0.258-8.644,2.987-11.52c22.958-19.77,51.53-31.855,81.707-34.56V213.352z"/>
	<path style="fill:#4CAF50;" d="M69.37,203.539c-13.867,8.107-28.373,16.64-42.453,24.107
		c56.747,71.04,123.947,125.227,165.12,133.76v21.76c-56.533-8.747-136.533-83.2-189.867-152.747
		c-1.892-2.493-2.594-5.691-1.92-8.747c0.757-3.148,2.865-5.803,5.76-7.253c16.853-8.32,34.347-18.56,52.693-29.227
		c44.587-26.027,90.453-52.693,133.333-56.533v21.333C154.49,154.045,111.184,179.219,69.37,203.539z"/>
</g>
<g>
</g>
<g>
</g>
<g>
</g>
<g>
</g>
<g>
</g>
<g>
</g>
<g>
</g>
<g>
</g>
<g>
</g>
<g>
</g>
<g>
</g>
<g>
</g>
<g>
</g>
<g>
</g>
<g>
</g>
</svg>
