<?xml version="1.0" encoding="utf-8"?>
<!-- Generator: Adobe Illustrator 27.1.1, SVG Export Plug-In . SVG Version: 6.00 Build 0)  -->
<svg version="1.1" id="Calque_1" xmlns="http://www.w3.org/2000/svg" xmlns:xlink="http://www.w3.org/1999/xlink" x="0px" y="0px"
	 viewBox="0 0 512 512" style="enable-background:new 0 0 512 512;" xml:space="preserve">
<style type="text/css">
	.st0{fill:#46A247;}
</style>
<path class="st0" d="M46,329.5c0,62.5,35,120.4,91.4,150.8c56.4,28.9,123.4,25.9,175.2-10.7c51.8-35,79.2-97.5,71.6-160
	c-7.6-62.5-48.8-115.8-108.2-138.7c-19.8-7.6-39.6-12.2-60.9-11.4c-36.6,24.4-67,59.4-85.3,99c62.5-65.5,150.8-45.7,187.4,24.4
	c32,79.2-24.4,156.9-102.1,158.5c-82.3-4.1-129.5-83.8-117.3-152.4c21.3-131,178.3-205.7,294.1-234.6
	c-53.3,25.9-105.1,54.9-153.9,88.4c140.2,53.3,163-64,227-115.8C399.5,1.1,164.8-11.1,163.3,130.6C96.3,173.3,49,240.3,46,328.7
	V329.5z"/>
</svg>
