<?xml version="1.0" encoding="UTF-8" standalone="no"?>
<svg
   width="246.269"
   height="246.269"
   viewBox="0 0 246.269 246.269"
   fill="none"
   version="1.1"
   id="svg35"
   sodipodi:docname="proton-pass.svg"
   inkscape:version="1.3.2 (091e20ef0f, 2023-11-25)"
   xmlns:inkscape="http://www.inkscape.org/namespaces/inkscape"
   xmlns:sodipodi="http://sodipodi.sourceforge.net/DTD/sodipodi-0.dtd"
   xmlns="http://www.w3.org/2000/svg"
   xmlns:svg="http://www.w3.org/2000/svg"
   xmlns:rdf="http://www.w3.org/1999/02/22-rdf-syntax-ns#"
   xmlns:cc="http://creativecommons.org/ns#"
   xmlns:dc="http://purl.org/dc/elements/1.1/">
  <title
     id="title37">Proton Pass</title>
  <sodipodi:namedview
     id="namedview35"
     pagecolor="#ffffff"
     bordercolor="#666666"
     borderopacity="1.0"
     inkscape:showpageshadow="2"
     inkscape:pageopacity="0.0"
     inkscape:pagecheckerboard="0"
     inkscape:deskcolor="#d1d1d1"
     showgrid="false"
     inkscape:zoom="1.0238242"
     inkscape:cx="426.34274"
     inkscape:cy="126.48656"
     inkscape:window-width="2508"
     inkscape:window-height="1412"
     inkscape:window-x="0"
     inkscape:window-y="0"
     inkscape:window-maximized="1"
     inkscape:current-layer="svg35" />
  <g
     clip-path="url(#clip0_1_680)"
     id="g13"
     transform="matrix(2.8428984,0,0,2.8428984,25.000007,-1.9530523)"
     style="stroke-width:0.351754">
    <path
       d="m 20.7604,18.2024 c 4.816,-4.816 7.224,-7.2241 10.0008,-8.1263 2.4424,-0.79358 5.0735,-0.79358 7.5159,0 2.7768,0.9022 5.1848,3.3103 10.0008,8.1263 l 12.0389,12.0389 c 4.816,4.816 7.224,7.224 8.1262,10.0007 0.7936,2.4425 0.7936,5.0735 0,7.516 -0.9022,2.7767 -3.3102,5.1847 -8.1262,10.0007 L 48.2779,69.7976 c -4.816,4.816 -7.224,7.2241 -10.0008,8.1263 -2.4424,0.7936 -5.0735,0.7936 -7.5159,0 -2.7768,-0.9022 -5.1848,-3.3103 -10.0008,-8.1263 L 18.497,67.2601 C 17.1273,65.7245 16.4424,64.9567 15.9541,64.0835 15.5211,63.309 15.2033,62.4755 15.011,61.6092 14.7941,60.6325 14.7941,59.6037 14.7941,57.546 V 30.454 c 0,-2.0577 0,-3.0865 0.2168,-4.0632 0.1924,-0.8662 0.5101,-1.6998 0.9432,-2.4743 0.4883,-0.8732 1.1731,-1.641 2.5429,-3.1766 z"
       fill="url(#paint0_radial_1_680)"
       id="path11"
       style="fill:url(#paint0_radial_1_680);stroke-width:0.351754" />
    <path
       d="m 20.7604,18.2024 c 4.816,-4.816 7.224,-7.2241 10.0008,-8.1263 2.4424,-0.79358 5.0735,-0.79358 7.5159,0 2.7768,0.9022 5.1848,3.3103 10.0008,8.1263 l 12.0389,12.0389 c 4.816,4.816 7.224,7.224 8.1262,10.0007 0.7936,2.4425 0.7936,5.0735 0,7.516 -0.9022,2.7767 -3.3102,5.1847 -8.1262,10.0007 L 48.2779,69.7976 c -4.816,4.816 -7.224,7.2241 -10.0008,8.1263 -2.4424,0.7936 -5.0735,0.7936 -7.5159,0 -2.7768,-0.9022 -5.1848,-3.3103 -10.0008,-8.1263 L 18.497,67.2601 C 17.1273,65.7245 16.4424,64.9567 15.9541,64.0835 15.5211,63.309 15.2033,62.4755 15.011,61.6092 14.7941,60.6325 14.7941,59.6037 14.7941,57.546 V 30.454 c 0,-2.0577 0,-3.0865 0.2168,-4.0632 0.1924,-0.8662 0.5101,-1.6998 0.9432,-2.4743 0.4883,-0.8732 1.1731,-1.641 2.5429,-3.1766 z"
       fill="url(#paint1_linear_1_680)"
       id="path12"
       style="fill:url(#paint1_linear_1_680);stroke-width:0.351754" />
    <path
       d="m 19.9004,19.0616 c 2.408,-2.408 3.612,-3.612 5.0004,-4.0631 1.2212,-0.3968 2.5367,-0.3968 3.758,0 1.3883,0.4511 2.5923,1.6551 5.0004,4.0631 l 18.0583,18.0583 c 2.408,2.408 3.612,3.612 4.0631,5.0004 0.3968,1.2212 0.3968,2.5368 0,3.758 -0.4511,1.3884 -1.6551,2.5924 -4.0631,5.0004 L 33.6591,68.937 c -2.408,2.408 -3.612,3.612 -5.0003,4.0631 -1.2213,0.3968 -2.5368,0.3968 -3.758,0 C 23.5124,72.549 22.3084,71.345 19.9004,68.937 L 8.72144,57.758 C 3.90543,52.942 1.49742,50.534 0.595207,47.7573 c -0.79361,-2.4425 -0.793609,-5.0735 10e-7,-7.516 C 1.49742,37.4646 3.90543,35.0566 8.72144,30.2406 Z"
       fill="url(#paint2_radial_1_680)"
       id="path13"
       style="fill:url(#paint2_radial_1_680);stroke-width:0.351754" />
  </g>
  <defs
     id="defs35">
    <radialGradient
       id="paint0_radial_1_680"
       cx="0"
       cy="0"
       r="1"
       gradientUnits="userSpaceOnUse"
       gradientTransform="matrix(30.418028,-48.948549,76.545491,47.567557,20.8358,79.8646)">
      <stop
         stop-color="#FFD580"
         id="stop13" />
      <stop
         offset="0.09375"
         stop-color="#F6C592"
         id="stop14" />
      <stop
         offset="0.205"
         stop-color="#EBB6A2"
         id="stop15" />
      <stop
         offset="0.324466"
         stop-color="#DFA5AF"
         id="stop16" />
      <stop
         offset="0.42875"
         stop-color="#D397BE"
         id="stop17" />
      <stop
         offset="0.53375"
         stop-color="#C486CB"
         id="stop18" />
      <stop
         offset="0.64875"
         stop-color="#B578D9"
         id="stop19" />
      <stop
         offset="0.77125"
         stop-color="#A166E5"
         id="stop20" />
      <stop
         offset="0.89125"
         stop-color="#8B57F2"
         id="stop21" />
      <stop
         offset="1"
         stop-color="#704CFF"
         id="stop22" />
    </radialGradient>
    <linearGradient
       id="paint1_linear_1_680"
       x1="18.458"
       y1="-4.2273302"
       x2="31.8839"
       y2="77.726501"
       gradientUnits="userSpaceOnUse">
      <stop
         stop-color="#6D4AFF"
         id="stop23" />
      <stop
         offset="0.392009"
         stop-color="#B39FFB"
         stop-opacity="0.978022"
         id="stop24" />
      <stop
         offset="1"
         stop-color="#FFE8DB"
         stop-opacity="0.8"
         id="stop25" />
    </linearGradient>
    <radialGradient
       id="paint2_radial_1_680"
       cx="0"
       cy="0"
       r="1"
       gradientUnits="userSpaceOnUse"
       gradientTransform="matrix(24.46664,-39.371604,61.569172,38.260844,15.7734,72.8468)">
      <stop
         stop-color="#FFD580"
         id="stop26" />
      <stop
         offset="0.09375"
         stop-color="#F6C592"
         id="stop27" />
      <stop
         offset="0.205"
         stop-color="#EBB6A2"
         id="stop28" />
      <stop
         offset="0.324466"
         stop-color="#DFA5AF"
         id="stop29" />
      <stop
         offset="0.42875"
         stop-color="#D397BE"
         id="stop30" />
      <stop
         offset="0.53375"
         stop-color="#C486CB"
         id="stop31" />
      <stop
         offset="0.64875"
         stop-color="#B578D9"
         id="stop32" />
      <stop
         offset="0.77125"
         stop-color="#A166E5"
         id="stop33" />
      <stop
         offset="0.89125"
         stop-color="#8B57F2"
         id="stop34" />
      <stop
         offset="1"
         stop-color="#704CFF"
         id="stop35" />
    </radialGradient>
    <clipPath
       id="clip0_1_680">
      <rect
         width="335"
         height="88"
         fill="#ffffff"
         id="rect35"
         x="0"
         y="0" />
    </clipPath>
  </defs>
  <metadata
     id="metadata37">
    <rdf:RDF>
      <cc:Work
         rdf:about="">
        <dc:title>Proton Pass</dc:title>
        <dc:subject>
          <rdf:Bag>
            <rdf:li>Proton Pass</rdf:li>
            <rdf:li>Password</rdf:li>
            <rdf:li>Manager</rdf:li>
            <rdf:li>Administrador</rdf:li>
            <rdf:li>Contraseñas</rdf:li>
            <rdf:li>Logo</rdf:li>
            <rdf:li>Logotipo</rdf:li>
            <rdf:li>Icon</rdf:li>
            <rdf:li>Ícono</rdf:li>
            <rdf:li>Isotype</rdf:li>
            <rdf:li>Isotipo</rdf:li>
            <rdf:li>SVG</rdf:li>
            <rdf:li>Vector</rdf:li>
            <rdf:li>Scalable</rdf:li>
            <rdf:li>Escalable</rdf:li>
            <rdf:li>Proton AG</rdf:li>
            <rdf:li>Open source</rdf:li>
            <rdf:li>Código abierto</rdf:li>
          </rdf:Bag>
        </dc:subject>
      </cc:Work>
    </rdf:RDF>
  </metadata>
</svg>
