<svg width="80" height="80" viewBox="0 0 80 80" fill="none" xmlns="http://www.w3.org/2000/svg">
<rect width="80.004" height="80" rx="4" fill="#4763F5"/>
<path fill-rule="evenodd" clip-rule="evenodd" d="M31.8936 33.9126C31.8936 32.7998 32.7969 31.8965 33.9096 31.8965H46.0918C47.2046 31.8965 48.1079 32.7998 48.1079 33.9126V36.489H46.2833V33.9126C46.2833 33.8069 46.1975 33.7211 46.0918 33.7211H33.9096C33.8039 33.7211 33.7182 33.8069 33.7182 33.9126V38.8999C33.7182 39.0056 33.8039 39.0914 33.9096 39.0914H46.0918C47.2046 39.0914 48.1079 39.9947 48.1079 41.1074V46.0948C48.1079 47.2075 47.2046 48.1109 46.0918 48.1109H33.9096C32.7969 48.1109 31.8936 47.2075 31.8936 46.0948V43.5184H33.7182V46.0948C33.7182 46.2005 33.8039 46.2862 33.9096 46.2862H46.0918C46.1975 46.2862 46.2833 46.2005 46.2833 46.0948V41.1074C46.2833 41.0017 46.1975 40.916 46.0918 40.916H33.9096C32.7969 40.916 31.8936 40.0126 31.8936 38.8999V33.9126Z" fill="white"/>
<path fill-rule="evenodd" clip-rule="evenodd" d="M27.9463 29.9626C27.9463 28.8499 28.8496 27.9465 29.9624 27.9465H50.0374C51.1501 27.9465 52.0535 28.8499 52.0535 29.9626V34.3517H50.2288V29.9626C50.2288 29.8569 50.1431 29.7712 50.0374 29.7712H29.9624C29.8567 29.7712 29.7709 29.8569 29.7709 29.9626V38.8964C29.7709 39.0021 29.8567 39.0878 29.9624 39.0878H50.0374C51.1501 39.0878 52.0535 39.9911 52.0535 41.1039V50.0376C52.0535 51.1504 51.1501 52.0537 50.0374 52.0537H29.9624C28.8496 52.0537 27.9463 51.1504 27.9463 50.0376V45.6545H29.7709V50.0396C29.7709 50.1453 29.8567 50.2311 29.9624 50.2311H50.0374C50.1431 50.2311 50.2288 50.1453 50.2288 50.0396V41.1059C50.2288 41.0002 50.1431 40.9144 50.0374 40.9144H29.9624C28.8496 40.9144 27.9463 40.0111 27.9463 38.8984V29.9626Z" fill="white"/>
<path fill-rule="evenodd" clip-rule="evenodd" d="M24.002 26.0161C24.002 24.9033 24.9053 24 26.0181 24H53.9879C55.1006 24 56.004 24.9033 56.004 26.0161V32.2139H54.1794V26.0161C54.1794 25.9104 54.0936 25.8246 53.9879 25.8246H26.0161C25.9104 25.8246 25.8246 25.9104 25.8246 26.0161V38.8962C25.8246 39.0019 25.9104 39.0877 26.0161 39.0877H53.9859C55.0987 39.0877 56.002 39.991 56.002 41.1038V53.9839C56.002 55.0967 55.0987 56 53.9859 56H26.0161C24.9033 56 24 55.0967 24 53.9839V47.7881H25.8246V53.9859C25.8246 54.0916 25.9104 54.1774 26.0161 54.1774H53.9859C54.0916 54.1774 54.1774 54.0916 54.1774 53.9859V41.1057C54.1774 41.0001 54.0916 40.9143 53.9859 40.9143H26.0161C24.9033 40.9143 24 40.011 24 38.8982V26.0161H24.002Z" fill="white"/>
</svg>