<?xml version="1.0" encoding="utf-8"?>
<!-- Generator: Adobe Illustrator 27.1.1, SVG Export Plug-In . SVG Version: 6.00 Build 0)  -->
<svg version="1.1" id="tempmail" xmlns="http://www.w3.org/2000/svg" xmlns:xlink="http://www.w3.org/1999/xlink" x="0px" y="0px"
	 viewBox="0 0 512 512" style="enable-background:new 0 0 512 512;" xml:space="preserve">
<style type="text/css">
	.st0{fill:url(#SVGID_1_);}
</style>
<linearGradient id="SVGID_1_" gradientUnits="userSpaceOnUse" x1="26.5851" y1="256" x2="485.4149" y2="256">
	<stop  offset="0" style="stop-color:#1F9889"/>
	<stop  offset="1" style="stop-color:#1EBB9C"/>
</linearGradient>
<path class="st0" d="M475.1,156.35c-5.9-2.75-12.77-1.26-17.57,3.79c-62.9,50.5-125.81,100.99-188.71,151.49
	c-1.3,1.31-6.2,5.95-13.65,6.15c-8.08,0.22-13.45-4.94-14.65-6.15c-40.57-32.99-81.14-65.98-121.72-98.98
	c-2.96-7.7-1.96-16.62,2.59-23.01c6.49-9.11,16.54-7.94,17.22-7.85c35.38,27.79,70.77,55.58,106.15,83.37
	c0.98,0.81,4.65,3.64,10.11,3.65c5.51,0.01,9.19-2.84,10.17-3.65c53.62-42.59,107.25-85.18,160.87-127.77
	c0.5-0.67,5.43-7.56,3.49-16.23c-1.62-7.23-7.36-12.68-14.34-13.44H50.27c-13.08,0-23.69,12.17-23.69,27.18v242.17
	c0,15.01,10.6,27.18,23.69,27.18h411.46c13.08,0,23.69-12.17,23.69-27.18V175.3v-1.86C485.14,165.88,481.12,159.15,475.1,156.35z"/>
</svg>
