<?xml version="1.0" encoding="utf-8"?>
<!-- Generator: Adobe Illustrator 27.1.1, SVG Export Plug-In . SVG Version: 6.00 Build 0)  -->
<svg version="1.1" id="Calque_1" xmlns="http://www.w3.org/2000/svg" xmlns:xlink="http://www.w3.org/1999/xlink" x="0px" y="0px"
	 viewBox="0 0 50 50" style="enable-background:new 0 0 50 50;" xml:space="preserve">
<style type="text/css">
	.st0{fill:#FFFFFF;}
	.st1{fill:#A970FF;}
</style>
<path class="st0" d="M10.8,5.4h31.6v24.3l-5.5,4.7l-17.1,5L11,33.9L10.8,5.4z"/>
<path class="st1" d="M5.3,1L5.1,1.7l-3,8L2,9.8V43h11v6h7.4l0.3-0.3l5.7-5.7h9l0.3-0.3L48,30.4V1H5.3z M6.7,3H46v26.6L34.6,41h-9
	l-6,6H15v-6H4V10.2L6.7,3z M6.3,2.1L2.9,9.9l0.5,31.9l11-0.1l-0.2,6.1l5.8-0.1l5.9-5.9l8.8-0.1l5.1-5l6.4-6.3l0.6-3L46.5,2.6
	L6.3,2.1z M12,7h30v20.6L36.6,33h-12l-0.3,0.3L20,37.6V33h-8V7z M20,13v14h6V13H20z M30,13v14h6V13H30z M24.5,25.6L24,15v10h-2
	L24.5,25.6z M34.7,25.8L34,15v10h-2L34.7,25.8z"/>
</svg>
