<?xml version="1.0" encoding="utf-8"?>
<!-- Generator: Adobe Illustrator 27.1.1, SVG Export Plug-In . SVG Version: 6.00 Build 0)  -->
<svg version="1.1" id="Camada_1" xmlns="http://www.w3.org/2000/svg" xmlns:xlink="http://www.w3.org/1999/xlink" x="0px" y="0px"
	 viewBox="0 0 1000 938.9" style="enable-background:new 0 0 1000 938.9;" xml:space="preserve">
<style type="text/css">
	.st0{fill:#04AA6D;}
</style>
<g>
	<g transform="translate(-.054) scale(1.45123)">
		<path class="st0" d="M580.4,136.2c0,0,17.3,18.6,41.5,18.6c19.1,0,33-11.6,33-27.4C655,108,637.3,99,615.8,99h-12.7l-7.5-17
			l33.6-39.7c7.2-8.5,13.2-13.9,13.2-13.9s-5.4,0.3-16.2,0.3h-54.6V0h111.8v20.9l-44.8,51.9c25.3,3.6,50.1,21.6,50.1,53.4
			c0,31.2-23.7,60.1-64.5,60.1c-38.9,0-60.5-24.5-60.5-24.5L580.4,136.2L580.4,136.2z M362.3,174.8l147.7,263l72.9-130L443.5,59.6
			H281.2l-67.3,119.8L146.7,59.6H0.7l212.4,378.2l0.8-1.4l0.8,1.4L362.3,174.8L362.3,174.8z M2.2,616h21.6c0,6.3,5.5,12.4,15.3,12.4
			c9.1,0,15.1-4.5,15.1-10.6c0-5.2-4-7.6-10.9-9.1L31,605.6C10.1,600.1,4.7,589,4.7,577.1c0-14.4,14.3-27.6,34.5-27.6
			c16.5,0,35.2,8.4,34.9,29H52.3c0-6.3-5.8-10.3-12.4-10.3c-7.2,0-12.1,4.1-12.1,9.9c0,4.8,4.5,7.6,9.9,8.8l14.9,4
			c20.9,5.4,24.6,18.4,24.6,27c0,18.8-18.8,29.2-37.7,29.2C21.2,647,2.6,635.8,2.2,616z M96.3,598.2c0-29.4,23.7-48.7,50.5-48.7
			c16.1,0,29.2,7.2,37.7,17.9l-16.2,12.9c-4.8-5.8-12.7-9.4-21-9.4c-16.1,0-27.6,11.6-27.6,27.2c0,15.5,11.6,27.4,27.6,27.4
			c8.4,0,16.2-3.6,21-9.4l16.2,12.9c-8.5,10.7-21.6,17.9-37.7,17.9C120,647,96.3,627.6,96.3,598.2L96.3,598.2z M295.6,592.5v52
			h-23.1v-50.3c0-14.9-8.9-22.8-19.3-22.8c-10.6,0-23.7,6.2-23.7,24.2v49.1h-23.1V501.3h23.2v64.5c4.5-11.3,19.5-16.5,28.7-16.5
			C282.4,549.5,295.6,565.6,295.6,592.5L295.6,592.5z M319.8,598.2c0-29.4,22.8-48.7,49.2-48.7c26.4,0,49.5,19.3,49.5,48.7
			S395.4,647,369,647S319.8,627.6,319.8,598.2z M395.3,598.2c0-16-12-27.2-26.3-27.2s-26,11.3-26,27.2c0,16.2,11.7,27.4,26,27.4
			C383.4,625.5,395.3,614.4,395.3,598.2z M438.2,598.2c0-29.4,22.8-48.7,49.2-48.7c26.4,0,49.5,19.3,49.5,48.7S513.8,647,487.4,647
			C461.2,647,438.2,627.6,438.2,598.2z M513.7,598.2c0-16-12-27.2-26.3-27.2s-26,11.3-26,27.2c0,16.2,11.7,27.4,26,27.4
			C501.9,625.5,513.7,614.4,513.7,598.2z M562.6,644.6V501.3h23.1v143.3H562.6z M610.8,616h21.6c0,6.3,5.5,12.4,15.3,12.4
			c9.1,0,15.1-4.5,15.1-10.6c0-5.2-4-7.6-10.9-9.1l-12.4-3.2c-20.9-5.5-26.3-16.6-26.3-28.5c0-14.4,14.3-27.6,34.5-27.6
			c16.5,0,35.2,8.4,34.9,29h-22c0-6.3-5.8-10.3-12.4-10.3c-7.2,0-12.1,4.1-12.1,9.9c0,4.8,4.5,7.6,9.9,8.8l14.9,4
			c20.9,5.4,24.6,18.4,24.6,27c0,18.8-18.8,29.2-37.7,29.2C629.7,647,611.3,635.8,610.8,616L610.8,616z"/>
	</g>
</g>
</svg>
