<svg id="Group" xmlns="http://www.w3.org/2000/svg" width="37" height="38" viewBox="0 0 37 38">
  <path id="Shape" d="M37,24.87l-7.87,1.68.8,7.82-7.37-3.16L18.5,38l-4.06-6.79L7.07,34.37l.8-7.82L0,24.87,5.36,19,0,13.13l7.87-1.68-.8-7.82,7.37,3.16L18.5,0l4.06,6.79,7.37-3.16-.8,7.83L37,13.13,31.64,19" fill="#f16850" fill-rule="evenodd"/>
  <path id="Shape-2" data-name="Shape" d="M18.5,11.86,14.44,6.79,7.07,3.63l4.39,5.78" fill="#fd694f" fill-rule="evenodd"/>
  <path id="Shape-3" data-name="Shape" d="M7.87,11.45,0,13.13,5.36,19l6.3-2.29" fill="#ff3413" fill-rule="evenodd"/>
  <path id="Shape-4" data-name="Shape" d="M11.46,9.41,7.07,3.63l.8,7.82,3.79,5.26" fill="#dc1d23" fill-rule="evenodd"/>
  <path id="Shape-5" data-name="Shape" d="M22.56,6.79,18.5,0,14.44,6.79l4.06,5.07" fill="#ff9281" fill-rule="evenodd"/>
  <path id="Shape-6" data-name="Shape" d="M31.64,19,37,13.13l-7.87-1.68-3.79,5.26" fill="#ff8b79" fill-rule="evenodd"/>
  <path id="Shape-7" data-name="Shape" d="M25.34,16.71l3.79-5.26.81-7.82-4.4,5.78" fill="#fd694f" fill-rule="evenodd"/>
  <path id="Shape-8" data-name="Shape" d="M25.54,9.41l4.4-5.78L22.56,6.79,18.5,11.86" fill="#ef5240" fill-rule="evenodd"/>
  <path id="Shape-9" data-name="Shape" d="M29.9,22.5,37,24.87,31.64,19l-6.3-2.29" fill="#ff482c" fill-rule="evenodd"/>
  <path id="Shape-10" data-name="Shape" d="M11.66,16.71,5.36,19,0,24.87,7.1,22.5" fill="#ec2101" fill-rule="evenodd"/>
  <path id="Shape-11" data-name="Shape" d="M18.5,30.59V38l4.06-6.79.17-6.65" fill="#d21c22" fill-rule="evenodd"/>
  <path id="Shape-12" data-name="Shape" d="M29.9,22.5l-7.17,2.06,6.4,1.99L37,24.87" fill="#c90901" fill-rule="evenodd"/>
  <path id="Shape-13" data-name="Shape" d="M22.56,31.21l7.37,3.16-.8-7.82-6.4-1.99" fill="#ec2101" fill-rule="evenodd"/>
  <path id="Shape-14" data-name="Shape" d="M7.1,22.5,0,24.87l7.87,1.67,6.4-1.98" fill="#b6171e" fill-rule="evenodd"/>
  <path id="Shape-15" data-name="Shape" d="M14.27,24.56l.17,6.65L18.5,38V30.59" fill="#b4151b" fill-rule="evenodd"/>
  <path id="Shape-16" data-name="Shape" d="M7.87,26.54l-.8,7.83,7.37-3.16-.17-6.65" fill="#d21c22" fill-rule="evenodd"/>
  <path id="Shape-17" data-name="Shape" d="M25.34,16.71l.2-7.3L18.5,11.86v7.1" fill="#e63320" fill-rule="evenodd"/>
  <path id="Shape-18" data-name="Shape" d="M18.5,11.86,11.46,9.41l.2,7.3,6.84,2.25" fill="#ff4527" fill-rule="evenodd"/>
  <path id="Shape-19" data-name="Shape" d="M14.27,24.56l4.23,6.03,4.23-6.03-4.23-5.6" fill="#ff9281" fill-rule="evenodd"/>
  <path id="Shape-20" data-name="Shape" d="M18.5,18.96l4.23,5.6L29.9,22.5l-4.56-5.79" fill="#fd684d" fill-rule="evenodd"/>
  <path id="Shape-21" data-name="Shape" d="M11.66,16.71,7.1,22.5l7.17,2.06,4.23-5.6" fill="#fd745c" fill-rule="evenodd"/>
</svg>
